<?xml version="1.0" standalone="no"?>
<!DOCTYPE svg PUBLIC "-//W3C//DTD SVG 1.1//EN" "http://www.w3.org/Graphics/SVG/1.1/DTD/svg11.dtd" >
<svg xmlns="http://www.w3.org/2000/svg">
<metadata>Generated by IcoMoon</metadata>
<defs>
<font id="icomoon" horiz-adv-x="1024">
<font-face units-per-em="1024" ascent="960" descent="-64" />
<missing-glyph horiz-adv-x="1024" />
<glyph unicode="&#x20;" horiz-adv-x="512" d="" />
<glyph unicode="&#xe900;" glyph-name="arrow" d="M1010.055 481.668l-304.726 304.726c-18.592 18.592-48.745 18.592-67.337 0-18.596-18.596-18.596-48.741 0-67.337l223.444-223.444h-813.823c-26.294 0-47.613-21.319-47.613-47.613 0-26.29 21.319-47.613 47.613-47.613h813.823l-223.436-223.444c-18.596-18.596-18.596-48.741 0-67.337 9.294-9.29 21.483-13.945 33.668-13.945s24.37 4.655 33.668 13.945l304.718 304.726c18.596 18.596 18.596 48.741 0 67.337z" />
<glyph unicode="&#xe901;" glyph-name="at" d="M879.341 830.903c-93.376 86.064-209.521 129.097-348.227 129.097-145.808 0-270.1-48.881-372.667-146.853s-153.955-219.757-153.955-365.565c0-139.75 48.881-259.865 146.435-360.552 97.971-100.687 229.575-151.031 395.228-151.031 99.851 0 197.823 20.472 293.914 61.624 31.334 13.369 46.583 49.299 33.841 80.842v0c-13.16 32.588-50.344 47.628-82.722 33.841-83.558-35.93-165.444-53.895-245.242-53.895-127.008 0-225.397 38.645-295.168 116.145-69.562 77.291-104.447 168.16-104.447 272.398 0 113.221 37.392 207.641 111.967 283.47 74.366 75.62 166.071 113.639 274.696 113.639 100.060 0 184.663-31.125 253.598-93.376s103.403-140.586 103.403-235.006c0-64.548-15.876-118.443-47.419-161.266-31.543-43.032-64.339-64.339-98.389-64.339-18.383 0-27.574 9.818-27.574 29.663 0 16.085 1.253 34.885 3.551 56.61l38.854 317.728h-133.692l-8.565-31.125c-34.050 27.783-71.442 41.779-111.967 41.779-64.339 0-119.488-25.694-165.235-76.873-45.957-51.179-68.726-117.19-68.726-197.823 0-78.753 20.263-142.466 60.997-190.721 40.734-48.463 89.616-72.486 146.853-72.486 51.179 0 94.838 21.516 131.186 64.339 27.365-41.152 67.682-61.624 120.95-61.624 78.335 0 146.017 34.050 203.045 102.358 57.028 68.1 85.647 150.404 85.647 246.704 0 121.994-46.583 226.233-140.168 312.297zM571.43 350.237c-23.605-31.752-51.806-47.837-84.602-47.837-22.352 0-40.317 11.698-53.895 35.094-13.787 23.396-20.681 52.432-20.681 87.318 0 43.032 9.609 77.709 28.827 104.029s43.032 39.69 71.442 39.69c24.65 0 46.583-9.818 65.802-29.663s28.827-46.166 28.827-79.171c-0.209-41.152-12.116-77.5-35.721-109.461z" />
<glyph unicode="&#xe902;" glyph-name="badge" d="M903.908 320.931l120.092 127.383-120.249 127.226 22.263 173.632-172.065 32.277-84.073 153.526-158.151-74.979-158.229 74.783-83.857-153.604-172.045-32.512 22.478-173.613-120.073-127.343 120.23-127.246-22.302-173.632 172.084-32.277 84.053-153.526 158.151 74.999 158.248-74.803 83.877 153.643 172.025 32.492-2.312 17.775-20.146 155.799zM512 112.278c-185.45 0-335.722 150.312-335.722 335.722s150.272 335.722 335.722 335.722c185.469 0 335.722-150.312 335.722-335.722s-150.272-335.722-335.722-335.722zM512 720.383c-150.174 0-272.383-122.189-272.383-272.383s122.209-272.383 272.383-272.383c150.174 0 272.383 122.17 272.383 272.383s-122.209 272.383-272.383 272.383zM506.552 321.813l-149.645 124.815 40.547 48.641 100.397-83.7 142.551 175.239 49.15-39.959-183-225.036z" />
<glyph unicode="&#xe903;" glyph-name="calendar-one" d="M375.467 226.133h119.467v-119.467h-119.467v119.467zM375.467 533.333h119.467v-119.467h-119.467v119.467zM375.467 379.733h119.467v-119.467h-119.467v119.467zM221.867 379.733h119.467v-119.467h-119.467v119.467zM221.867 533.333h119.467v-119.467h-119.467v119.467zM221.867 226.133h119.467v-119.467h-119.467v119.467zM682.667 533.333h119.467v-119.467h-119.467v119.467zM972.8 891.733h-119.467v51.2c0 9.438-7.629 17.067-17.067 17.067h-119.467c-9.438 0-17.067-7.629-17.067-17.067v-51.2h-375.467v51.2c0 9.438-7.629 17.067-17.067 17.067h-119.467c-9.438 0-17.067-7.629-17.067-17.067v-51.2h-119.467c-9.438 0-17.067-7.629-17.067-17.067v-921.6c0-9.438 7.629-17.067 17.067-17.067h921.6c9.438 0 17.067 7.629 17.067 17.067v921.6c0 9.438-7.629 17.067-17.067 17.067zM836.267 413.867v-341.333h-648.533v494.933h648.533v-153.6zM955.733 704h-887.467v153.6h102.4v-51.2c0-9.438 7.629-17.067 17.067-17.067h119.467c9.438 0 17.067 7.629 17.067 17.067v51.2h375.467v-51.2c0-9.438 7.629-17.067 17.067-17.067h119.467c9.438 0 17.067 7.629 17.067 17.067v51.2h102.4v-153.6zM682.667 379.733h119.467v-119.467h-119.467v119.467zM682.667 226.133h119.467v-119.467h-119.467v119.467zM529.067 226.133h119.467v-119.467h-119.467v119.467zM529.067 379.733h119.467v-119.467h-119.467v119.467zM529.067 533.333h119.467v-119.467h-119.467v119.467z" />
<glyph unicode="&#xe904;" glyph-name="calendar-two" d="M592.844 421.080v0c-29.799 0-53.896-24.128-53.896-53.923 0-29.74 24.155-53.896 53.896-53.896v0c29.74 0 53.896 24.155 53.896 53.896 0.003 29.795-24.101 53.923-53.896 53.923zM431.156 474.948c29.754 0 53.896 24.142 53.896 53.896 0 29.775-24.142 53.889-53.896 53.889-29.747 0-53.889-24.114-53.889-53.889 0-29.754 24.142-53.896 53.889-53.896zM592.844 582.733v0c-29.799 0-53.896-24.114-53.896-53.889 0-29.754 24.101-53.896 53.896-53.896v0c29.74 0 53.896 24.142 53.896 53.896 0.003 29.775-24.101 53.889-53.896 53.889zM646.743 852.215h-269.476v-107.792h269.476v107.792zM754.535 474.948c29.727 0 53.896 24.142 53.896 53.896 0 29.775-24.114 53.889-53.896 53.889-29.799 0-53.896-24.114-53.896-53.889 0-29.754 24.155-53.896 53.896-53.896zM754.535 313.26c29.727 0 53.896 24.155 53.896 53.896 0 29.795-24.114 53.896-53.896 53.896-29.799 0-53.896-24.101-53.896-53.896 0-29.74 24.155-53.896 53.896-53.896zM431.156 313.26c29.754 0 53.896 24.155 53.896 53.896 0 29.795-24.114 53.923-53.896 53.923-29.775 0-53.889-24.128-53.889-53.923 0-29.74 24.142-53.896 53.889-53.896zM269.476 151.57c29.747 0 53.896 24.169 53.896 53.896 0 29.795-24.149 53.896-53.896 53.896-29.775 0-53.896-24.101-53.896-53.896 0-29.727 24.145-53.896 53.896-53.896zM916.208 852.215h-53.879v-107.792h53.879v-700.629h-808.417v700.625h53.889v107.795h-53.889c-59.529 0-107.792-48.246-107.792-107.795v-700.604c0-59.563 48.263-107.819 107.792-107.819h808.413c59.539 0 107.792 48.259 107.792 107.819v700.604c0.003 59.549-48.253 107.795-107.788 107.795zM269.476 313.26c29.747 0 53.896 24.155 53.896 53.896 0 29.795-24.149 53.923-53.896 53.923-29.775 0-53.896-24.128-53.896-53.923 0-29.74 24.145-53.896 53.896-53.896zM269.476 474.948c29.747 0 53.896 24.142 53.896 53.896 0 29.775-24.149 53.889-53.896 53.889-29.775 0-53.896-24.114-53.896-53.889 0-29.754 24.145-53.896 53.896-53.896zM431.156 151.57c29.754 0 53.896 24.169 53.896 53.896 0 29.795-24.142 53.896-53.896 53.896-29.747 0-53.889-24.101-53.889-53.896 0-29.727 24.142-53.896 53.889-53.896zM269.476 744.42c29.747 0 53.896 24.142 53.896 53.896v107.785c0 29.785-24.121 53.899-53.896 53.899-29.751 0-53.896-24.114-53.896-53.896v-107.785c0-29.758 24.145-53.899 53.896-53.899zM754.535 744.42c29.727 0 53.896 24.142 53.896 53.896v107.785c0 29.785-24.169 53.899-53.896 53.899-29.799 0-53.896-24.114-53.896-53.896v-107.785c0-29.758 24.155-53.899 53.896-53.899z" />
<glyph unicode="&#xe905;" glyph-name="caret-down" d="M1004.992 717.007c-12.658 12.669-27.663 18.998-45 18.998h-895.987c-17.344 0-32.339-6.329-45.007-18.998-12.669-12.683-18.998-27.677-18.998-45.011 0-17.33 6.329-32.325 18.998-44.997l447.995-447.995c12.683-12.669 27.677-19.012 45.007-19.012s32.339 6.343 44.997 19.012l447.995 447.999c12.655 12.669 19.008 27.663 19.008 44.997 0 17.33-6.354 32.325-19.008 45.007z" />
<glyph unicode="&#xe906;" glyph-name="cart" d="M900.057 321.087l121.057 362.332c6.075 17.419 1.477 27.89-3.423 34.803-12.552 17.687-38.361 17.855-43.362 17.855l-684.155 0.134-18.258 86.623c-4.934 20.439-19.499 39.938-48.866 39.938h-192.275c-19.936 0-30.776-9.33-30.776-27.957v-50.007c0-18.023 10.807-22.721 31.481-22.721h162.338l124.245-527.489c-19.734-20.909-30.474-51.383-30.474-79.81 0-62.559 49.806-120.218 113.438-120.218 60.075 0 105.115 56.283 112.432 89.845h241.98c7.316-33.562 43.798-91.187 112.398-91.187 62.525 0 113.371 54.169 113.371 116.627 0 62.123-37.757 117.197-112.734 117.197-31.179 0-68.164-16.781-85.347-41.952h-297.323c-21.58 33.562-51.047 43.966-80.85 45.14l-4.128 21.983h452.378c34.099 0 40.811 12.418 46.852 28.863zM868.677 193.854c23.527 0 42.623-19.097 42.623-42.623s-19.097-42.623-42.623-42.623-42.657 19.063-42.657 42.623c0.034 23.527 19.13 42.623 42.657 42.623zM443.182 151.231c0-23.795-19.332-43.16-43.060-43.16-23.795 0.067-43.16 19.365-43.16 43.16s19.365 43.16 43.16 43.16c23.728 0 43.060-19.365 43.060-43.16z" />
<glyph unicode="&#xe907;" glyph-name="chronometer" d="M965.929 605.661c7.357-7.357 19.129-7.357 26.277 0l26.277 26.277c7.357 7.357 7.357 19.129 0 26.277l-59.49 59.49c-7.357 7.357-19.129 7.357-26.277 0l-26.277-26.277c-7.357-7.357-7.357-19.129 0-26.277l2.523-2.523-18.499-18.499c-46.667 36.997-103.215 61.592-165.227 68.74v33.634h20.391c10.3 0 18.499 8.409 18.499 18.499v54.655c0 10.3-8.409 18.499-18.499 18.499h-118.14c-10.3 0-18.499-8.409-18.499-18.499v-54.655c0-10.3 8.409-18.499 18.499-18.499h20.391v-33.634c-62.013-7.357-118.77-31.952-165.227-68.74l-18.499 18.499 2.523 2.523c7.357 7.357 7.357 19.129 0 26.277l-26.277 26.277c-7.357 7.357-19.129 7.357-26.277 0l-59.49-59.49c-7.357-7.357-7.357-19.129 0-26.277l26.277-26.277c7.357-7.357 19.129-7.357 26.277 0l2.523 2.523 18.499-18.499c-44.145-55.917-70.421-126.548-70.421-203.066 0-181.204 147.57-328.773 328.773-328.773s328.773 147.57 328.773 328.773c0 76.518-26.487 147.149-70.421 203.066l18.499 18.499 2.523-2.523zM686.556 133.943c-139.161 0-252.466 113.305-252.466 252.466s113.305 252.466 252.466 252.466 252.466-113.305 252.466-252.466-113.305-252.466-252.466-252.466zM133.485 298.327c-18.078 0-32.583-14.715-32.583-32.583 0-18.078 14.715-32.583 32.583-32.583h176.789c3.574 0 6.727 0.631 9.88 1.682-8.409 20.391-15.346 41.622-20.18 63.695h-166.489v-0.21zM319.944 537.552c-2.943 0.841-6.306 1.682-9.67 1.682h-277.691c-18.078 0-32.583-14.715-32.583-32.583 0-18.078 14.715-32.583 32.583-32.583h267.181c4.835 21.442 11.562 42.883 20.18 63.484zM290.094 386.409c0 10.931 0.631 21.652 1.471 32.373h-213.576c-18.078 0-32.583-14.715-32.583-32.583s14.715-32.583 32.583-32.583h213.366c-0.631 10.721-1.261 21.65-1.261 32.793zM845.266 480.372c-5.466 9.039-16.817 12.613-26.277 7.778l-113.725-55.706c-14.084 5.676-30.481 5.045-44.565-3.153-23.754-14.084-31.742-44.775-17.658-68.529s44.775-31.742 68.529-17.658c14.084 8.409 22.493 22.493 24.174 37.418l103.635 72.944c8.829 6.098 11.352 17.66 5.886 26.907zM707.577 380.943c-3.153-11.772-15.135-18.709-26.697-15.766-11.772 3.153-18.709 15.135-15.766 26.697 3.153 11.772 15.135 18.709 26.697 15.766 11.772-2.945 18.709-15.135 15.766-26.697zM757.608 511.696c9.88-5.676 22.493-2.102 27.958 7.778 5.676 9.88 2.102 22.493-7.778 27.958-9.88 5.676-22.283 2.102-27.958-7.778-3.784-6.727-3.363-14.505 0.21-20.601 1.892-2.733 4.414-5.468 7.568-7.357zM685.294 530.615c11.352 0 20.391 9.249 20.391 20.601s-9.249 20.391-20.601 20.391-20.391-9.249-20.391-20.601c0-3.784 1.051-7.357 2.733-10.3 3.574-6.098 10.3-10.303 17.868-10.090zM688.027 241.78v0c-11.352-0.21-20.391-9.46-20.391-20.811 0-3.784 1.051-7.147 2.733-10.090 3.574-6.096 10.3-10.3 17.868-10.090 11.352 0.21 20.391 9.46 20.18 20.811 0.21 10.933-9.039 20.18-20.391 20.18zM759.92 261.75c-9.67-5.676-13.033-18.289-7.147-27.958v0c5.676-9.88 18.289-13.033 28.169-7.147 9.67 5.676 13.033 18.289 7.147 27.958-5.886 9.672-18.499 12.825-28.169 7.147zM840.221 322.712c-9.88 5.466-22.493 2.102-27.958-7.778-3.784-6.727-3.363-14.294 0.21-20.601 1.682-2.943 4.414-5.676 7.568-7.357 9.88-5.676 22.493-2.102 27.958 7.778s2.102 22.493-7.778 27.958zM541.929 384.515c0 11.352-9.46 20.391-20.601 20.391-11.352-0.21-20.391-9.46-20.391-20.811 0-3.784 1.051-7.147 2.733-10.090 3.574-6.096 10.3-10.3 17.868-10.090 11.562 0.002 20.601 9.249 20.391 20.601zM534.151 319.771c-9.67-5.676-13.033-18.289-7.147-27.958v0c5.676-9.67 18.289-13.033 28.169-7.147 9.67 5.676 12.823 18.289 7.147 28.169-5.886 9.46-18.499 12.821-28.169 6.937zM830.972 387.46c0-3.784 1.051-7.147 2.943-10.3 3.574-6.096 10.3-10.090 17.868-10.090 11.352 0 20.391 9.46 20.391 20.601 0 11.352-9.249 20.391-20.601 20.391-11.562 0-20.811-9.46-20.601-20.601zM532.68 449.052c9.88-5.676 22.493-2.102 27.958 7.778v0c5.466 9.88 2.102 22.283-7.988 27.958-9.88 5.466-22.283 2.102-27.958-7.778-3.574-6.517-3.363-14.294 0.21-20.601 1.892-2.943 4.414-5.468 7.778-7.357zM612.771 510.224c0 0 0.21 0 0.21 0.21 0.21 0 0.21 0 0.21 0.21 0 0 0 0 0.21 0 9.67 5.676 12.823 18.289 7.147 27.958-5.676 9.88-18.289 13.033-28.169 7.357 0 0-0.21 0-0.21-0.21-0.21 0-0.21-0.21-0.42-0.21-9.67-5.676-13.033-18.289-7.147-27.958v0c5.886-9.882 18.499-13.035 28.169-7.357zM615.504 260.281c-9.88 5.676-22.493 2.102-27.958-7.778-3.784-6.727-3.363-14.505 0.21-20.601 1.682-2.943 4.414-5.676 7.568-7.568 9.88-5.466 22.493-1.892 27.958 7.778 5.676 10.090 2.102 22.493-7.778 28.169z" />
<glyph unicode="&#xe908;" glyph-name="comment" d="M1024 857.6c0 56.32-46.080 102.4-102.4 102.4h-819.2c-56.32 0-102.4-46.080-102.4-102.4v-614.4c0-56.32 46.080-102.4 102.4-102.4h716.8l204.8-204.8v921.6zM819.2 345.6h-614.4v102.4h614.4v-102.4zM819.2 499.2h-614.4v102.4h614.4v-102.4zM819.2 652.8h-614.4v102.4h614.4v-102.4z" />
<glyph unicode="&#xe909;" glyph-name="computer" d="M1005.794 407.492c-1.525 5.302-4.708 9.979-9.079 13.353-37.13 28.623-75.254 44.363-113.038 47.913 0 0-5.033 0.81-17.156 0.81-12.129 0-18.309-0.789-18.309-0.789-36.433-4.297-72.917-20.34-108.717-47.934-4.373-3.368-7.555-8.053-9.079-13.353-17.573-60.91-22.26-119.34-14.764-183.884 6.629-57.056 22.348-114.325 40.688-177.899 1.527-5.305 4.711-9.984 9.079-13.353 28.114-21.675 64.579-33.603 102.679-33.603s74.573 11.928 102.687 33.598c4.371 3.368 7.555 8.056 9.085 13.355 18.341 63.582 34.059 120.843 40.688 177.896 7.497 64.55 2.809 122.985-14.764 183.89zM890.791 301.719c0-12.532-10.163-22.69-22.693-22.69s-22.685 10.158-22.685 22.69v94.631c0 12.53 10.156 22.693 22.685 22.693s22.693-10.163 22.693-22.693v-94.631zM695.445 59.566h-40.912l-33.764 114.8h68.915c-2.152 12.305-3.994 24.603-5.431 36.95-4.347 37.444-4.872 73.015-1.519 108.129h-603.599v506.404h817.721v-325.076c26.642-2.672 53.102-10.451 79.134-23.2v387.842c0 21.852-17.718 39.567-39.567 39.567h-896.855c-21.852 0-39.567-17.716-39.567-39.567v-651.483c0-21.854 17.716-39.567 39.567-39.567h315.651l-33.761-114.8h-40.907c-10.388 0-18.81-8.42-18.81-18.808v-30.931c0-10.388 8.423-18.81 18.81-18.81h414.896c10.388 0 18.808 8.42 18.808 18.81v30.931c-0.005 10.388-8.423 18.808-18.808 18.808z" />
<glyph unicode="&#xe90a;" glyph-name="customer" d="M511.994 641.164c72.946 0 132.29 59.346 132.29 132.29s-59.346 132.29-132.29 132.29c-72.946 0-132.29-59.346-132.29-132.29s59.344-132.29 132.29-132.29zM298.654 322.528h426.682c17.636 0 31.934 14.298 31.934 31.934 0 135.246-110.030 245.274-245.274 245.274s-245.276-110.028-245.276-245.274c0-17.636 14.298-31.934 31.934-31.934zM640.876 199.95l-69.264 10.066-30.976 62.762c-11.696 23.702-45.582 23.686-57.272 0l-30.976-62.762-69.264-10.066c-26.154-3.8-36.612-36.032-17.698-54.468l50.118-48.854-11.832-68.984c-4.468-26.050 22.954-45.954 46.334-33.664l61.952 32.568 61.952-32.568c23.19-12.192 50.836 7.42 46.334 33.664l-11.832 68.984 50.118 48.854c18.928 18.45 8.444 50.67-17.694 54.468zM285.1 199.95l-69.264 10.066-30.976 62.762c-11.696 23.698-45.582 23.686-57.272 0l-30.974-62.762-69.264-10.066c-26.154-3.8-36.61-36.032-17.698-54.468l50.118-48.854-11.832-68.984c-4.468-26.050 22.954-45.954 46.334-33.664l61.952 32.57 61.952-32.57c23.19-12.192 50.836 7.42 46.334 33.664l-11.832 68.984 50.12 48.854c18.926 18.45 8.44 50.67-17.698 54.468zM996.648 199.95l-69.264 10.066-30.974 62.762c-9.594 19.442-30.768 17.802-28.636 17.802-12.154 0-23.256-6.902-28.636-17.802l-30.976-62.762-69.264-10.066c-26.154-3.8-36.61-36.032-17.698-54.468l50.122-48.854-11.832-68.984c-4.468-26.050 22.952-45.954 46.334-33.664l61.952 32.57 61.952-32.57c23.19-12.192 50.836 7.42 46.334 33.664l-11.832 68.984 50.12 48.854c18.92 18.446 8.44 50.67-17.702 54.468z" />
<glyph unicode="&#xe90b;" glyph-name="dental-care" d="M1019.626 255.452c-7.18 23.026-22.442 42.112-42.978 53.744-21.168 11.99-45.338 14.684-68.060 7.582l-203.28-63.528-230.808 128.6c-57.264 31.904-122.284 39.016-183.084 20.012l-104.368-37.106v27.69h-187.048v-315.672h187.046v27.594l132.834 40.068 294.196-111.744 349.088 109.092c22.72 7.1 41.066 23.078 51.664 44.994 10.276 21.258 11.98 45.65 4.798 68.674zM127.104 136.776h-67.162v195.67h67.164v-195.67zM960.868 212.914c-3.3-6.828-8.828-11.748-15.566-13.854l-329.322-102.916-293.882 111.628-135.050-40.734v134.050l122.762 43.666c44.814 13.84 92.932 8.408 135.536-15.33l253.278-141.122 227.826 71.2c6.734 2.104 14.082 1.208 20.678-2.53 7.23-4.094 12.656-10.984 15.28-19.402 2.624-8.414 2.078-17.174-1.54-24.656zM948.202 769.452c-14.56 42.304-44.64 73.544-82.528 85.706-60.946 19.562-112.472-0.418-138.724-14.82-26.26 14.4-77.796 34.376-138.732 14.82-37.904-12.166-67.99-43.424-82.542-85.756-18.582-54.050-9.338-116.23 24.728-166.332 19.45-28.606 32.14-60.816 36.7-93.16 0.276-1.94 0.54-3.924 0.802-5.952 11.858-92.074 36.884-138.76 76.51-142.724 17.86-1.774 42.812 6.18 60.42 54.258 8.312 22.698 14.836 52.872 18.374 84.958 0.874 7.932 2.24 14.21 3.738 19.126 1.498-4.916 2.864-11.194 3.738-19.126 3.538-32.084 10.062-62.258 18.374-84.956 16.174-44.172 38.56-54.484 55.93-54.484 1.536 0 3.036 0.082 4.488 0.226 39.626 3.964 64.654 50.65 76.516 142.75 0.25 1.95 0.508 3.86 0.768 5.722 4.554 32.398 17.28 64.72 36.802 93.47 34.016 50.098 43.226 112.256 24.638 166.274zM873.992 636.906c-24.652-36.3-40.76-77.396-46.588-118.846-0.294-2.108-0.586-4.258-0.864-6.43-5.488-42.626-13.352-67.35-19.436-80.324-6.076 14.998-13.032 41.194-16.838 75.72-2.752 24.966-9.702 45.454-20.66 60.89-9.792 13.798-25.74 22.038-42.656 22.038s-32.864-8.238-42.656-22.038c-10.958-15.438-17.908-35.922-20.66-60.888-3.806-34.528-10.762-60.724-16.838-75.722-6.084 12.974-13.948 37.696-19.436 80.322-0.292 2.278-0.594 4.504-0.9 6.676-5.836 41.384-21.916 82.372-46.5 118.524-23.484 34.538-30.062 76.798-17.602 113.046 8.342 24.264 24.44 41.81 44.166 48.146 54.938 17.626 98.774-14.342 101.916-16.71l18.178-15.296 18.818 15.282c2.962 2.238 46.886 34.386 101.938 16.726 19.716-6.33 35.81-23.866 44.156-48.114 12.468-36.226 5.912-78.47-17.538-113.002z" />
<glyph unicode="&#xe90c;" glyph-name="dental-tool" d="M349.087 960c-67.168 0-121.818-54.65-121.818-121.818 0-61.781 46.284-112.85 105.973-120.662v-47.995c-13.976-6.116-23.768-20.028-23.768-36.27v-657.642c0-21.882 17.731-39.613 39.613-39.613s39.613 17.731 39.613 39.613v657.642c0 16.241-9.792 30.154-23.768 36.27v47.995c59.689 7.812 105.973 58.881 105.973 120.662 0 67.168-54.65 121.818-121.818 121.818zM349.087 748.070c-49.691 0-90.128 40.421-90.128 90.128s40.437 90.112 90.128 90.112 90.128-40.421 90.128-90.128-40.437-90.112-90.128-90.112zM393.105 793.308c1.553-1.553 1.553-4.056 0-5.609-0.776-0.776-1.791-1.157-2.805-1.157s-2.028 0.38-2.805 1.157l-82.522 82.522c-1.553 1.553-1.553 4.056 0 5.609s4.056 1.553 5.609 0l82.522-82.522zM406.035 822.067c1.553-1.553 1.553-4.056 0-5.609-0.776-0.776-1.791-1.157-2.805-1.157s-2.028 0.38-2.805 1.157l-66.598 66.598c-1.553 1.553-1.553 4.056 0 5.609s4.056 1.553 5.609 0l66.598-66.598zM339.437 800.042c1.553-1.553 1.553-4.056 0-5.609-0.776-0.776-1.791-1.157-2.805-1.157s-2.028 0.38-2.805 1.157l-41.673 41.673c-1.553 1.553-1.553 4.056 0 5.609s4.056 1.553 5.609 0l41.673-41.673zM697.683 857.83c0-33.766 33.085-38.805 52.812-38.805 8.747 0 15.845-7.099 15.845-15.845v-133.655c13.976-6.116 23.768-20.028 23.768-36.27v-657.642c0-21.882-17.731-39.613-39.613-39.613s-39.613 17.731-39.613 39.613v657.642c0 16.241 9.792 30.154 23.768 36.27v118.744c-42.212 5.166-68.658 31.326-68.658 69.561 0 40.675 41.942 62.399 82.506 83.409 8.255 4.278 16.574 8.588 24.639 13.088 7.622 4.262 17.287 1.537 21.565-6.1s1.537-17.287-6.1-21.565c-8.35-4.659-16.986-9.143-25.527-13.564-33.624-17.414-65.393-33.861-65.393-55.268z" />
<glyph unicode="&#xe90d;" glyph-name="dentist" d="M970.145 177.5l-263.439 88.564c-5.936 1.969-12.125 2.999-18.373 2.999h-219.625l-356.094 347.485c-22.813 22.265-59.36 21.829-81.69-0.968-22.281-22.846-21.859-59.392 0.952-81.719l372.92-363.924c10.796-10.562 25.25-16.469 40.358-16.469h25.705v-144.436h-76.047c-2.655 0-4.796-2.187-4.796-4.814v-63.405c0-2.625 2.141-4.812 4.796-4.812h344.859c2.657 0 4.844 2.187 4.844 4.812v63.405c0 2.628-2.184 4.814-4.844 4.814h-90.686v144.436h29.906l254.407-85.53c6.124-2.001 12.343-3.063 18.435-3.063 24.126 0 46.657 15.282 54.75 39.403 10.159 30.318-6.089 63.037-36.34 73.223zM445.005 775.327c0.796-0.516 1.686-0.767 2.625-0.767 0.611 0 1.14 0.094 1.719 0.312 1.439 0.546 2.531 1.764 2.953 3.236 0.124 0.578 11.641 45.342-14.564 77.86l35.702 65.501h195.609v-438.171c0-10.624 8.658-19.266 19.282-19.266 10.656 0 19.25 8.639 19.25 19.266v31.329h296.153c2.657 0 4.814 2.141 4.814 4.796v81.063c0 2.655-2.157 4.796-4.814 4.796h-42.528v19.688c0 2.641-2.125 4.798-4.779 4.798h-19.659c-2.655 0-4.812-2.157-4.812-4.798v-19.656h-16.469v19.656c0 2.641-2.157 4.798-4.812 4.798h-19.688c-2.655 0-4.812-2.157-4.812-4.798v-19.656h-15.627v19.656c0 2.641-2.157 4.798-4.812 4.798h-19.624c-2.657 0-4.847-2.157-4.847-4.798v-19.656h-21.345v19.656c0 2.641-2.125 4.798-4.779 4.798h-19.656c-2.657 0-4.814-2.157-4.814-4.798v-19.656h-15.627v19.656c0 2.641-2.154 4.798-4.812 4.798h-19.656c-2.655 0-4.782-2.157-4.782-4.798v-19.656h-38.155v335.422c-0.089 10.656-8.653 19.266-19.309 19.266h-226.314c-7.031 0-13.532-3.876-16.891-10.046l-38.779-71.109c-12.265 5.28-25.124 8.064-38.467 8.064-32.768 0-56.706-15.936-57.736-16.592-1.374-0.906-2.141-2.407-2.141-4.045 0.032-1.625 0.842-3.125 2.219-3.999l134.783-86.945zM263.24 555.14c55.046 0 99.78 44.766 99.78 99.796 0 55.016-44.734 99.78-99.78 99.78-55.033 0-99.783-44.766-99.783-99.78 0-55 44.78-99.796 99.783-99.796zM967.173 333.436l-212.5 81.063c-6.592 2.531-13.561 3.752-20.624 3.752h-197.312l-138.36 133.688c-22.921 22.141-59.514 21.531-81.733-1.407-22.141-22.983-21.533-59.53 1.436-81.735l155.17-149.891c10.783-10.404 25.188-16.216 40.156-16.216h210.017l202.532-77.219c6.781-2.593 13.717-3.843 20.562-3.843 23.314 0 45.218 14.185 54.032 37.219 11.374 29.841-3.593 63.276-33.378 74.589z" />
<glyph unicode="&#xe90e;" glyph-name="doctor" d="M729.013 673.898c0-119.853-97.16-217.013-217.013-217.013s-217.013 97.16-217.013 217.013c0 119.853 97.16 217.013 217.013 217.013s217.013-97.16 217.013-217.013zM761.419 192.623c0-17.897-14.508-32.406-32.406-32.406s-32.406 14.508-32.406 32.406c0 17.897 14.508 32.406 32.406 32.406s32.406-14.508 32.406-32.406zM348.718 314.719c-15.471 14.635-34.078 23.625-53.731 23.625-20.28 0-39.096-8.99-54.358-24.461 29.27 6.481 66.484 8.781 108.088 0.836zM1023.172 83.907c-25.297 163.282-126.695 301.477-266.562 377.159 6.481-46.413 12.962-124.396-2.509-193.388 30.942-10.662 53.731-39.723 53.731-74.846 0-43.068-34.914-78.819-78.819-78.819-43.068 0-78.819 34.914-78.819 78.819 0 37.423 25.924 68.365 61.048 76.31 21.116 81.328 3.972 186.071-0.836 213.668-5.645 2.509-11.29 4.809-17.144 6.481-47.040-45.577-110.597-74.010-181.262-74.010-68.993 0-132.549 27.597-178.753 72.338-7.317-15.471-21.116-52.894-18.607-108.925 68.993-12.962 121.887-92.617 121.887-189.416 0-35.751-7.317-70.665-21.116-100.771-7.317-21.952-39.096-30.942-53.731-30.942-21.952 0-39.723 17.98-39.723 39.723s17.98 39.723 39.723 39.723c6.481 0 15.471-1.673 25.297-4.809 16.098 53.312 3.972 107.252-3.972 128.368-77.982 34.078-149.484 10.662-175.617 0-7.317-21.116-20.698-70.247-3.972-128.368 9.826 3.972 18.607 5.645 25.297 5.645 21.952 0 39.723-17.98 39.723-39.723s-17.98-39.723-39.723-39.723c-13.799 0-44.741 8.99-52.894 29.27v0c-14.635 30.942-21.952 65.857-21.952 102.443 0 95.126 52.058 173.945 119.378 188.58-1.673 36.587 3.345 67.529 8.99 90.108-148.229-74.637-255.482-215.968-281.406-384.895-6.481-41.396 25.924-78.819 67.529-78.819h886.659c42.232-0.209 74.637 37.214 68.156 78.819z" />
<glyph unicode="&#xe90f;" glyph-name="done-tick" d="M985.519 838.147l-27.419 23.556c-45.513 39.111-113.906 34.752-154.089-9.807l-458.685-508.591-138.456 119.247c-45.465 39.155-113.868 34.883-154.099-9.628l-24.243-26.826c-19.66-21.742-29.868-50.422-28.386-79.718 1.497-29.279 14.559-56.767 36.335-76.419l253.797-232.412c21.974-20.635 51.422-31.397 81.522-29.799 30.1 1.593 58.241 15.422 77.904 38.27l547.555 636.219c19.13 22.228 28.64 51.142 26.436 80.378-2.203 29.256-15.929 56.421-38.17 75.53z" />
<glyph unicode="&#xe910;" glyph-name="double-tick" d="M773.495 680.927l-61.528 61.528-276.876-276.876 61.528-61.528 276.876 276.876zM958.077 742.455l-461.46-465.855-184.584 184.584-61.528-61.528 246.112-246.112 527.383 527.383-65.923 61.528zM0 399.656l246.112-246.112 61.528 61.528-246.112 246.112-61.528-61.528z" />
<glyph unicode="&#xe911;" glyph-name="examinating-tooth" d="M680.327 489.751c54.807 54.809 54.807 143.99 0 198.799-26.551 26.551-61.851 41.174-99.401 41.174-37.547 0-72.848-14.623-99.398-41.174-54.807-54.809-54.807-143.99 0-198.799 27.406-27.406 63.402-41.107 99.398-41.107 35.999 0 71.995 13.704 99.401 41.107zM580.924 697.87c29.043 0 56.343-11.308 76.876-31.843 6.057-6.057 11.217-12.668 15.542-19.653h-184.835c4.327 6.986 9.487 13.599 15.542 19.653 20.535 20.533 47.838 31.843 76.876 31.843zM475.248 614.518h211.356c2.041-8.561 3.028-17.323 2.972-26.080h-141.603c-8.796 0-15.926-7.13-15.926-15.926s7.13-15.926 15.926-15.926h136.637c-5.065-16.22-13.983-31.488-26.808-44.312-42.384-42.389-111.36-42.391-153.749 0-27.685 27.683-37.278 66.698-28.805 102.245zM953.759 279.955l-118.704 118.704c-6.221 6.219-16.306 6.219-22.522 0l-8.872-8.872-51.347 51.347c0.676 13.077 1.024 25.578 1.032 37.246l71.061 222.105c6.53 20.935 9.546 42.774 8.968 64.914v0c-2.806 107.496-92.376 194.602-199.882 194.602-0.296 0-0.605 0-0.902-0.002l-2.58-0.012c-43.665-0.191-83.91-23.137-107.655-61.378-15.77-25.397-43.001-40.556-72.848-40.556s-57.080 15.162-72.848 40.556c-23.743 38.241-63.985 61.187-107.655 61.378l-2.575 0.012c-0.301 0.002-0.598 0.002-0.902 0.002-107.501 0-197.079-87.113-199.884-194.604-0.576-22.138 2.44-43.977 9.005-65.022l71.027-221.998c0.056-86.882 18.494-219.023 59.205-306.895l91.268-197.008c7.858-22.836 28.751-38.25 52.31-38.469 0.174-0.002 0.353-0.002 0.527-0.002 14.736 0 28.594 5.699 39.071 16.081 10.602 10.507 16.443 24.514 16.443 39.441 0 1.475-0.206 2.948-0.61 4.366-18.058 63.402-54.255 242.092-5.508 306.66 12.141 16.083 28.866 23.904 51.126 23.904 21.714 0 38.086-7.662 50.051-23.427 48.642-64.088 13.327-242.7-4.381-306.116-0.39-1.394-0.588-2.84-0.588-4.288 0-28.805 22.841-54.121 50.918-56.434 1.563-0.13 3.114-0.191 4.658-0.191 23.613 0 44.641 14.829 52.425 37.395l91.702 198.228c29.572 63.926 47.348 151.292 54.856 227.628l31.99-31.988-9.722-9.722c-6.219-6.221-6.219-16.304 0-22.522l118.704-118.704c3.112-3.109 7.189-4.665 11.264-4.665s8.152 1.556 11.261 4.665l41.117 41.115c6.216 6.221 6.216 16.304-0.002 22.525zM464.021 472.246c-31.228 31.226-48.426 72.742-48.426 116.905 0 44.16 17.198 85.677 48.426 116.903 31.226 31.226 72.742 48.424 116.903 48.424s85.677-17.198 116.903-48.424c0.002 0 0.002 0 0.002 0 31.226-31.226 48.424-72.742 48.424-116.903s-17.198-85.679-48.426-116.905c-31.226-31.228-72.742-48.424-116.903-48.424s-85.677 17.196-116.903 48.424zM105.021 709.969c-5.484 17.59-8.017 35.959-7.532 54.598 2.352 90.359 77.657 163.579 168.041 163.579 0.25 0 0.51 0 0.76-0.002l2.583-0.012c32.627-0.142 62.807-17.46 80.728-46.326 21.621-34.82 58.97-55.608 99.91-55.608s78.29 20.788 99.91 55.608c17.921 28.866 48.1 46.184 80.725 46.326l2.587 0.012c0.255 0 0.505 0.002 0.76 0.002 90.374 0 165.684-73.225 168.039-163.579 0 0 0 0 0 0 0.488-18.636-2.046-37.006-7.498-54.486l-22.496-70.317c-8.782 33.289-26.195 63.821-51.185 88.813-37.243 37.243-86.76 57.754-139.428 57.754s-102.184-20.511-139.428-57.754c-37.241-37.243-57.752-86.76-57.752-139.428 0-52.67 20.511-102.187 57.752-139.428 0.919-0.919 1.879-1.781 2.813-2.681-43.776 0.299-85.011 4.344-121.624 9.992l-41.737 105.906c-3.224 8.184-12.472 12.2-20.655 8.978-8.184-3.224-12.202-12.474-8.978-20.658l34.595-87.782c-55.544 10.911-95.99 24.181-111.515 29.655l-69.376 216.835zM665.383 184.999l-92.067-199.019c-0.265-0.573-0.497-1.164-0.691-1.767-3.411-10.489-13.488-17.188-24.502-16.277-10.96 0.902-20.641 11.337-21.599 22.826 7.314 27.024 63.659 245.522-1.58 331.505-18.141 23.912-43.521 36.038-75.433 36.038-32.485 0-58.244-12.307-76.56-36.579-65.34-86.581-7.863-305.004-0.377-332.118-0.448-5.64-2.869-10.874-6.934-14.9-4.521-4.479-10.391-6.888-16.884-6.853-10.024 0.093-19.332 7.262-22.635 17.436-0.196 0.605-0.429 1.196-0.696 1.774l-91.638 197.807c-35.695 77.047-53.359 190.708-55.917 273.389 43.607-14.282 147.028-43.095 271.644-43.095 12.104 0 24.478 0.336 36.844 0.904 28.668-15.716 60.969-24.098 94.569-24.098 47.667 0 92.716 16.85 128.458 47.647 0.63-1.007 1.37-1.968 2.244-2.842l8.069-8.066c-5.346-78.65-22.775-175.534-54.314-243.712zM901.381 250.102l-96.181 96.181 9.71 9.71c0.005 0.005 0.007 0.007 0.012 0.012s0.007 0.007 0.012 0.012l8.858 8.858 96.181-96.181-18.592-18.592z" />
<glyph unicode="&#xe912;" glyph-name="eye-close-up" d="M512 782.559c-225.859 0-420.519-133.143-509.94-325.276-2.746-5.822-2.746-12.633 0-18.565 89.421-192.133 284.082-325.276 509.94-325.276s420.519 133.143 509.94 325.276c2.746 5.822 2.746 12.633 0 18.565-89.421 192.134-284.081 325.276-509.94 325.276zM512 217.142c-127.54 0-230.802 103.373-230.802 230.803 0 127.54 103.372 230.802 230.802 230.802 127.54 0 230.802-103.372 230.802-230.802s-103.372-230.803-230.802-230.803zM659.753 448.055c0-81.602-66.151-147.753-147.753-147.753s-147.753 66.151-147.753 147.753c0 81.602 66.151 147.753 147.753 147.753s147.753-66.151 147.753-147.753z" />
<glyph unicode="&#xe913;" glyph-name="facebook" d="M376.354 761.682c0-25.805 0-140.984 0-140.984h-103.289v-172.396h103.289v-512.3h212.178v512.286h142.382c0 0 13.335 82.663 19.798 173.046-18.532 0-161.378 0-161.378 0s0 100.294 0 117.874c0 17.618 23.134 41.316 45.999 41.316 22.822 0 70.99 0 115.603 0 0 23.472 0 104.573 0 179.474-59.557 0-127.314 0-157.18 0-222.647 0.012-217.402-172.555-217.402-198.315z" />
<glyph unicode="&#xe914;" glyph-name="google-plus" d="M662.21 960h-244.211c-108.823 0-184.152-23.858-251.952-79.867-53.322-46.004-85.144-112.862-85.144-178.854 0-101.673 77.519-209.724 221.167-209.724 13.812 0 29.104 1.417 42.598 2.676l-1.988-4.833c-5.774-13.833-11.242-26.883-11.242-47.252 0-39.658 19.131-64.12 37.628-87.756l2.327-2.993-4.135-0.286c-59.318-4.061-169.727-11.633-250.376-61.201-95.254-56.632-102.657-139.016-102.657-162.906 0-95.053 88.581-190.995 286.492-190.995 230.124 0 350.538 126.96 350.538 252.365 0.021 92.758-54.369 138.55-112.101 187.166l-48.7 37.882c-15.049 12.469-33.789 27.983-33.789 56.727 0 28.258 18.74 46.913 35.28 63.369l1.724 1.745c52.592 41.424 112.196 88.391 112.196 189.979 0 102.139-63.824 154.921-94.514 180.292h81.041c0.994 0 1.988 0.275 2.813 0.814l69.809 43.889c1.988 1.258 2.919 3.68 2.263 5.943-0.624 2.263-2.718 3.818-5.066 3.818zM366.063-8.034c-140.274 0-234.524 65.516-234.524 163.033 0 63.675 38.548 109.944 114.47 137.451 60.799 20.464 139.28 21.479 140.063 21.479 13.293 0 19.977 0 30.595-1.333 98.152-69.852 145.34-106.528 145.34-176.379-0.011-88.983-75.097-144.251-195.944-144.251zM364.741 528.982c-117.727 0-166.586 154.752-166.586 237.612 0 42.133 9.581 74.473 29.294 98.892 21.394 26.767 58.028 44.058 93.329 44.058 108.093 0 167.866-145.287 167.866-245.702 0-15.842 0-64.035-33.292-97.507-22.388-22.346-58.8-37.353-90.611-37.353zM1004.488 481.741h-128.683v128.229c0 2.919-2.38 5.288-5.288 5.288h-55.352c-2.919 0-5.288-2.369-5.288-5.288v-128.229h-128.038c-2.919 0-5.288-2.369-5.288-5.288v-56.093c0-2.908 2.369-5.288 5.288-5.288h128.038v-129.054c0-2.908 2.369-5.288 5.288-5.288h55.352c2.908 0 5.288 2.38 5.288 5.288v129.075h128.683c2.919 0 5.288 2.358 5.288 5.288v56.072c0 2.929-2.358 5.288-5.288 5.288z" />
<glyph unicode="&#xe915;" glyph-name="instagram" d="M921.6 960h-819.2c-56.32 0-102.4-46.080-102.4-102.4v-819.2c0-56.32 46.080-102.4 102.4-102.4h819.2c56.32 0 102.4 46.080 102.4 102.4v819.2c0 56.32-46.080 102.4-102.4 102.4zM512 652.8c112.64 0 204.8-92.16 204.8-204.8s-92.16-204.8-204.8-204.8c-112.64 0-204.8 92.16-204.8 204.8s92.16 204.8 204.8 204.8zM128 38.4c-15.36 0-25.6 10.24-25.6 25.6v435.2h107.52c-5.12-15.36-5.12-35.84-5.12-51.2 0-168.96 138.24-307.2 307.2-307.2s307.2 138.24 307.2 307.2c0 15.36 0 35.84-5.12 51.2h107.52v-435.2c0-15.36-10.24-25.6-25.6-25.6h-768zM921.6 729.6c0-15.36-10.24-25.6-25.6-25.6h-102.4c-15.36 0-25.6 10.24-25.6 25.6v102.4c0 15.36 10.24 25.6 25.6 25.6h102.4c15.36 0 25.6-10.24 25.6-25.6v-102.4z" />
<glyph unicode="&#xe916;" glyph-name="link" d="M512 960c-283.927 0-512-228.073-512-512s228.073-512 512-512 512 228.073 512 512-228.073 512-512 512zM390.982 392.145l-32.582-32.582c-9.309-9.309-23.273-9.309-32.582 0l-58.182 58.182c-37.236 37.236-58.182 86.109-58.182 139.636 0 107.055 88.436 195.491 195.491 195.491 51.2 0 102.4-20.945 139.636-58.182l58.182-58.182c9.309-9.309 9.309-23.273 0-32.582l-32.582-32.582c-9.309-9.309-23.273-9.309-32.582 0l-58.182 58.182c-18.618 18.618-44.218 30.255-72.145 30.255-55.855 0-102.4-46.545-102.4-102.4 0-27.927 11.636-53.527 30.255-72.145l58.182-58.182c4.655-11.636 4.655-25.6-2.327-34.909zM402.618 524.8l32.582 32.582c9.309 9.309 23.273 9.309 32.582 0l153.6-153.6c9.309-9.309 9.309-23.273 0-32.582l-32.582-32.582c-9.309-9.309-23.273-9.309-32.582 0l-153.6 153.6c-9.309 9.309-9.309 23.273 0 32.582zM619.055 145.455c-51.2 0-102.4 20.945-139.636 58.182l-58.182 58.182c-9.309 9.309-9.309 23.273 0 32.582l32.582 32.582c9.309 9.309 23.273 9.309 32.582 0l58.182-58.182c18.618-18.618 44.218-30.255 72.145-30.255 55.855 0 102.4 46.545 102.4 102.4 0 27.927-11.636 53.527-30.255 72.145l-58.182 58.182c-9.309 9.309-9.309 23.273 0 32.582l32.582 32.582c9.309 9.309 23.273 9.309 32.582 0l58.182-58.182c37.236-37.236 58.182-86.109 58.182-139.636 2.327-104.727-86.109-193.164-193.164-193.164z" />
<glyph unicode="&#xe917;" glyph-name="magnifier" d="M995.866 99.865l-234.921 234.94c-35.003-54.438-81.327-100.738-135.765-135.744l234.94-234.94c37.506-37.498 98.318-37.498 135.744 0 37.508 37.437 37.508 98.248 0.002 135.744zM767.998 576c0 212.059-171.933 384-383.996 384-212.059 0-384-171.942-384-384s171.942-383.992 384-383.992c212.063 0 383.996 171.933 383.996 383.992zM384.002 288.011c-158.813 0-287.998 129.174-287.998 287.987s129.185 287.998 287.998 287.998c158.809 0 288.004-129.185 288.004-287.998s-129.195-287.987-288.004-287.987zM160.005 576h63.992c0 88.222 71.784 159.999 160.003 159.999v63.998c-123.495 0-223.995-100.5-223.995-223.997z" />
<glyph unicode="&#xe918;" glyph-name="magnifier-tool" d="M767.998 576c0 212.059-171.933 384-383.996 384-212.059 0-384-171.942-384-384s171.942-383.992 384-383.992c212.063 0 383.996 171.933 383.996 383.992zM384.002 288.011c-158.813 0-287.998 129.174-287.998 287.987s129.185 287.998 287.998 287.998c158.809 0 288.004-129.185 288.004-287.998s-129.195-287.987-288.004-287.987zM995.866 99.865l-234.921 234.94c-35.003-54.438-81.327-100.738-135.765-135.744l234.94-234.94c37.506-37.498 98.318-37.498 135.744 0 37.508 37.437 37.508 98.248 0.002 135.744z" />
<glyph unicode="&#xe919;" glyph-name="map-placeholder" d="M512 960c-199.68 0-358.4-158.72-358.4-358.4 0-266.24 358.4-665.6 358.4-665.6s358.4 399.36 358.4 665.6c0 199.68-158.72 358.4-358.4 358.4zM512 473.6c-71.68 0-128 56.32-128 128s56.32 128 128 128 128-56.32 128-128-56.32-128-128-128z" />
<glyph unicode="&#xe91a;" glyph-name="medal-with-star" d="M512 512c-159.058 0-288-128.938-288-288s128.942-288 288-288 288 128.938 288 288c0 159.062-128.942 288-288 288zM610.882 99.25l-98.882 61.812-98.882-61.812 34.882 110.968-96 77.782h120.446l39.554 99.39 39.554-99.39h120.446l-96-77.782 34.882-110.968zM288 832v-128c0-10.062 4.734-19.562 12.796-25.594l128-96c5.546-4.156 12.282-6.406 19.204-6.406h128c6.922 0 13.656 2.25 19.204 6.406l128 96c8.062 6.032 12.796 15.532 12.796 25.594v128c35.344 0 64 28.656 64 64s-28.656 64-64 64h-448c-35.344 0-64-28.656-64-64s28.656-64 64-64zM608 832v-96c0-17.672-14.328-32-32-32s-32 14.328-32 32v96h64zM480 832v-96c0-17.672-14.328-32-32-32s-32 14.328-32 32v96h64z" />
<glyph unicode="&#xe91b;" glyph-name="molar" d="M960.062 767.192c-14.799 56.013-58.13 109.458-121.978 150.473-78.701 50.586-189.914 56.267-290.325 14.709l-3.293-1.393c-1.755-0.76-3.456-1.52-5.283-2.153-8.413-2.913-14.872-5.428-20.137-7.472-16.699-6.441-16.681-6.459-44.145 1.628-78.43 23.104-178.226 46.189-254.865 19.051-103.668-36.745-195.559-158.361-167.136-347.189 3.383-22.344 6.64-44.869 9.933-67.502 23.755-163.119 48.27-331.793 111.357-484.111l2.171-5.265c15.65-38.12 41.865-101.95 87.494-101.95h3.673l3.383 1.429c41.883 17.73 57.551 57.931 68.967 87.277 7.725 19.811 14.6 39.984 21.24 59.487 16.79 49.265 32.638 95.798 61.206 137.573 21.656 31.679 80.058 100.647 154.797 56.104 49.844-29.689 65.476-89.593 80.601-147.524 4.306-16.536 8.775-33.633 13.949-49.591 21.91-67.466 50.369-137.030 95.31-141.644 23.411-2.316 45.502 13.587 64.915 47.582 35.461 62.147 50.676 131.367 65.367 198.309l5.156 23.393c5.79 25.872 12.23 52.558 18.798 79.841 36.962 153.585 78.864 327.668 38.844 478.937zM886.029 296.722c-6.622-27.482-13.099-54.367-18.924-80.402l-5.211-23.538c-14.112-64.318-28.712-130.788-61.441-188.123-11-19.286-21.892-29.943-29.798-29.545-8.286 0.85-31.155 13.949-64.571 116.821-4.867 14.944-8.992 30.793-13.352 47.564-16.193 61.966-34.502 132.2-97.101 169.488-69.058 41.087-146.909 15.505-203.157-66.76-31.354-45.864-48.758-96.938-65.584-146.33-6.531-19.16-13.262-38.952-20.716-58.022-11.579-29.707-22.398-53.571-45.448-65.277-20.498 5.12-42.408 58.42-50.893 79.117l-2.207 5.373c-61.369 148.139-85.558 314.551-108.969 475.463-3.311 22.706-6.586 45.285-9.951 67.665-18.273 121.399 18.997 263.603 143.435 307.73 20.263 7.165 43.222 10.077 67.249 10.077 55.326 0 116.297-15.36 163.264-29.147 116.206-66.018 116.206-94.586 115.736-212.638l-0.054-23.882c0-10.005 8.087-18.092 18.092-18.092s18.092 8.087 18.092 18.092l0.054 23.755c0.398 103.469 0.253 152.21-82.428 211.516h0.018c4.939 1.918 10.982 4.27 18.834 7.002 2.641 0.923 5.265 2.026 7.924 3.184l2.696 1.158c89.574 37.035 188.014 32.566 256.891-11.724 56.231-36.148 94.079-82.066 106.581-129.305 37.686-142.44-3.094-311.801-39.061-461.224zM379.321 760.895h-28.694l-43.675 43.675v28.694c0 10.005-8.087 18.092-18.092 18.092s-18.092-8.087-18.092-18.092v-28.694l-43.675-43.675h-28.694c-10.005 0-18.092-8.087-18.092-18.092s8.087-18.092 18.092-18.092h28.694l43.675-43.675v-28.694c0-10.005 8.087-18.092 18.092-18.092s18.092 8.087 18.092 18.092v28.694l43.675 43.675h28.694c10.005 0 18.092 8.087 18.092 18.092s-8.105 18.092-18.092 18.092zM288.86 714.109l-28.694 28.694 28.694 28.694 28.694-28.694-28.694-28.694zM849.718 435.236h-28.694l-43.675 43.675v28.694c0 10.005-8.087 18.092-18.092 18.092s-18.092-8.087-18.092-18.092v-28.694l-43.675-43.675h-28.694c-10.005 0-18.092-8.087-18.092-18.092s8.087-18.092 18.092-18.092h28.694l43.675-43.675v-28.694c0-10.005 8.087-18.092 18.092-18.092s18.092 8.087 18.092 18.092v28.694l43.675 43.675h28.694c10.005 0 18.092 8.087 18.092 18.092s-8.105 18.092-18.092 18.092zM759.257 388.45l-28.694 28.694 28.694 28.694 28.694-28.694-28.694-28.694z" />
<glyph unicode="&#xe91c;" glyph-name="molar-one" d="M250.3 856.862c-94.797-33.583-122.409-152.355-107.951-248.491 1.357-8.975 9.065-15.416 17.877-15.416 0.887 0 1.809 0.072 2.696 0.199 9.898 1.502 16.701 10.712 15.217 20.591-12.322 81.932 8.776 182.283 84.248 209.027 9.427 3.347 14.349 13.679 11.001 23.088-3.311 9.409-13.607 14.349-23.088 11.001zM436.727 659.958c-2.298 5.32-4.487 10.694-6.604 16.122-3.637 9.337-14.168 13.933-23.432 10.278-9.319-3.619-13.915-14.114-10.278-23.432 2.262-5.808 4.632-11.58 7.111-17.316 2.949-6.84 9.608-10.929 16.611-10.929 2.407 0 4.831 0.47 7.165 1.484 9.156 3.963 13.39 14.602 9.427 23.794zM409.622 742.505c-1.285 5.664-2.515 11.381-3.619 17.099-1.882 9.825-11.436 16.394-21.189 14.331-9.825-1.882-16.231-11.381-14.331-21.189 1.176-6.152 2.479-12.25 3.872-18.312 1.9-8.396 9.373-14.059 17.624-14.059 1.339 0 2.696 0.145 4.053 0.452 9.735 2.244 15.815 11.942 13.589 21.677zM380.58 809.744c9.988 0.398 17.733 8.83 17.334 18.818-0.235 5.79-0.38 11.617-0.434 17.461-0.090 9.934-8.161 17.932-18.094 17.932-0.054 0-0.109 0-0.163 0-10.006-0.090-18.022-8.251-17.932-18.257 0.054-6.243 0.217-12.449 0.47-18.619 0.398-9.735 8.414-17.353 18.058-17.353 0.271 0 0.525 0 0.76 0.018zM468.7 598.148c-5.211 8.559-16.375 11.255-24.862 6.025-8.541-5.211-11.237-16.339-6.025-24.862 3.239-5.302 6.55-10.531 9.97-15.742 3.456-5.284 9.246-8.161 15.145-8.161 3.402 0 6.858 0.959 9.916 2.967 8.36 5.483 10.676 16.701 5.193 25.061-3.203 4.849-6.315 9.753-9.337 14.711zM669.096 407.993c-5.121 2.841-10.187 5.754-15.181 8.74-8.577 5.139-19.705 2.298-24.807-6.297s-2.298-19.687 6.297-24.807c5.32-3.167 10.694-6.261 16.14-9.282 2.768-1.556 5.79-2.28 8.758-2.28 6.369 0 12.521 3.366 15.833 9.319 4.849 8.74 1.683 19.759-7.039 24.608zM748.585 371.515c-5.483 2.027-10.929 4.144-16.339 6.351-9.228 3.746-19.795-0.688-23.577-9.97-3.764-9.246 0.706-19.813 9.97-23.577 5.718-2.334 11.508-4.56 17.334-6.731 2.081-0.778 4.198-1.14 6.315-1.14 7.328 0 14.24 4.506 16.973 11.779 3.456 9.391-1.303 19.813-10.676 23.288zM832.633 347.25c-5.718 1.194-11.399 2.497-17.045 3.854-9.681 2.388-19.488-3.601-21.84-13.318-2.352-9.699 3.601-19.488 13.318-21.84 6.007-1.466 12.069-2.823 18.185-4.107 1.23-0.271 2.497-0.38 3.709-0.38 8.396 0 15.905 5.863 17.696 14.403 2.027 9.771-4.234 19.361-14.023 21.388zM582.623 467.017c-7.744 6.405-19.126 5.32-25.477-2.334-6.405-7.69-5.356-19.108 2.334-25.477 4.777-3.963 9.59-7.853 14.476-11.653 3.311-2.588 7.22-3.836 11.11-3.836 5.392 0 10.73 2.388 14.277 6.966 6.152 7.889 4.759 19.252-3.13 25.386-4.596 3.583-9.138 7.22-13.589 10.947zM520.179 527.923c-6.586 7.545-18.022 8.305-25.531 1.755-7.527-6.55-8.323-17.986-1.755-25.531 4.071-4.668 8.215-9.301 12.449-13.842 3.565-3.836 8.396-5.754 13.227-5.754 4.415 0 8.848 1.61 12.34 4.867 7.31 6.804 7.726 18.257 0.905 25.567-3.945 4.234-7.817 8.559-11.635 12.938zM975.579 595.433c0.018 0.253-0.109 0.489-0.109 0.742 1.194 24.645 1.158 49.108-0.271 73.264 0 0.362 0.163 0.651 0.145 1.013-0.163 2.642-0.416 5.284-0.615 7.907-0.072 1.049-0.163 2.099-0.235 3.167-0.199 2.569-0.362 5.157-0.597 7.708-0.036 0.398-0.271 0.706-0.326 1.086-2.388 24.771-6.387 49.163-12.449 72.993-0.036 0.163 0.018 0.326-0.018 0.489l-0.85 3.293c-0.018 0.054-0.018 0.109-0.036 0.163-0.036 0.109-0.072 0.199-0.109 0.308-1.393 5.247-2.986 10.404-4.831 15.489-0.145 0.38-0.434 0.615-0.597 0.977-8.486 22.98-21.677 45.345-39.156 66.425-0.145 0.181-0.163 0.398-0.308 0.579-4.162 4.976-8.504 9.807-13.010 14.53-0.072 0.072-0.181 0.109-0.253 0.181-16.574 17.316-36.189 33.475-58.264 48.222-0.235 0.181-0.362 0.452-0.615 0.615l-4.885 3.203c-3.854 2.497-7.781 4.867-11.779 7.129-0.163 0.090-0.362 0.090-0.525 0.181-22.093 12.413-46.376 21.569-72.052 27.377-0.127 0.036-0.217 0.127-0.344 0.145-2.081 0.47-4.234 0.778-6.333 1.194-3.727 0.76-7.455 1.52-11.255 2.135-0.507 0.090-0.995 0.199-1.502 0.29-0.145 0.018-0.271-0.036-0.398-0.018-24.753 3.872-50.483 4.777-76.539 2.714-0.054 0-0.090 0.018-0.127 0.018-0.543-0.036-1.068-0.127-1.61-0.181-5.682-0.489-11.381-1.086-17.081-1.846-0.127-0.018-0.271-0.018-0.398-0.036-0.036 0-0.054-0.018-0.072-0.018-24.789-3.366-49.687-9.373-74.097-18.167-0.090-0.036-0.199 0-0.29-0.036-5.392-1.936-10.658-3.999-15.815-6.116l-2.479-1.049c-0.018 0-0.018-0.018-0.018-0.018l-1.158-0.489c-1.701-0.742-3.366-1.466-5.030-2.045-8.432-2.931-14.874-5.428-20.139-7.473-13.498-5.229-16.321-6.134-31.267-2.081-0.018 0-0.018 0.018-0.036 0.018-1.809 0.489-3.764 1.031-6.007 1.665-0.326 0.090-0.688 0.199-1.031 0.29-2.099 0.615-4.361 1.267-7.147 2.099l-2.913 0.85c-0.036 0-0.072 0-0.109 0-28.77 8.396-60.236 16.647-92.3 22.383l-7.871 1.556-0.036-0.235c-52.112 8.595-105.273 10.079-150.365-5.917-103.681-36.732-195.583-158.344-167.156-347.214 3.384-22.347 6.641-44.874 9.952-67.528 23.74-163.139 48.276-331.834 111.353-484.153l2.153-5.229c15.652-38.143 41.871-101.998 87.523-101.998h3.673l3.384 1.429c41.907 17.733 57.558 57.938 68.994 87.288 7.726 19.813 14.602 39.989 21.261 59.513 8.74 25.658 17.28 50.538 27.431 74.422 22.98-46.774 69.935-123.024 131.945-123.024 7.256 0 14.747 1.068 22.419 3.329 40.803 12.087 61.25 54.211 76.178 84.953l1.194 2.479c3.13 6.442 7.129 13.915 11.418 21.985 4.325 8.124 9.047 17.154 13.679 26.418 4.524-14.584 8.468-29.584 12.34-44.458 4.306-16.538 8.776-33.638 13.951-49.597 21.912-67.474 50.375-137.029 95.321-141.643 23.74-2.443 45.526 13.589 64.923 47.588 35.465 62.136 50.664 131.366 65.357 198.297l5.175 23.414c5.79 25.875 12.232 52.582 18.8 79.887 2.642 10.965 5.302 22.057 7.962 33.221l0.271 1.14c0 0 0 0.018 0 0.036 5.573 23.378 11.056 47.154 16.267 71.165 0.018 0.090 0.090 0.181 0.109 0.271l2.624 12.304c0.018 0.109 0.054 0.217 0.072 0.344l1.14 5.302c0.018 0.090-0.018 0.181 0 0.29 4.958 23.776 9.463 47.733 13.354 71.763 0.036 0.199 0.163 0.344 0.199 0.543 0.633 3.926 1.23 7.853 1.828 11.779 0.127 0.814 0.253 1.628 0.38 2.425 0.199 1.357 0.434 2.732 0.633 4.089 0.018 0.127-0.036 0.235-0.018 0.362 3.565 24.283 6.297 48.584 8.070 72.776 0.036 0.271 0.181 0.489 0.199 0.76 0.308 4.107 0.525 8.197 0.778 12.304 0.018 0.29 0.036 0.579 0.054 0.869 0.090 1.828 0.235 3.637 0.326 5.428zM599.83 165.401c-4.524-8.522-8.685-16.357-12.015-23.161l-1.194-2.497c-12.666-26.074-28.408-58.517-53.903-66.063-60.273-17.895-115.642 108.621-121.757 123.115l-1.592 3.818c1.918 3.42 3.764 6.514 5.591 9.536 2.425 3.908 4.831 7.835 7.455 11.671 21.659 31.701 80.122 100.623 154.816 56.111 5.808-3.456 11.056-7.401 15.977-11.635 1.828-1.574 3.492-3.402 5.247-5.103 2.823-2.75 5.627-5.519 8.179-8.504 2.37-2.805 4.632-5.863 6.84-8.975 1.466-2.027 2.931-4.035 4.288-6.134 2.913-4.524 5.7-9.319 8.36-14.476 0.271-0.525 0.561-1.031 0.814-1.538-7.093-18.547-17.66-38.414-27.105-56.165zM867.23 216.319l-5.211-23.577c-14.114-64.29-28.716-130.787-61.449-188.11-11.001-19.271-22.347-30.254-29.802-29.548-8.287 0.85-31.177 13.951-64.579 116.818-4.867 14.946-8.993 30.797-13.354 47.57-14.277 54.699-30.272 115.768-76.829 155.015-0.109 0.090-0.235 0.181-0.326 0.271-6.116 5.121-12.702 9.916-19.94 14.24-69.066 41.129-146.963 15.525-203.182-66.768-3.13-4.578-6.243-9.427-9.409-14.729-25.549-41.925-41.129-87.414-56.183-131.583-6.514-19.162-13.263-38.957-20.718-58.047-11.58-29.711-22.401-53.578-45.453-65.285-20.519 5.121-42.431 58.463-50.918 79.163l-2.189 5.338c-61.376 148.139-85.569 314.572-108.983 475.504-3.311 22.709-6.586 45.29-9.952 67.691-18.275 121.414 18.999 263.636 143.453 307.75 20.248 7.165 43.209 10.079 67.239 10.079 22.184 0 45.272-2.515 68.035-6.369 2.244-5.989 7.383-10.73 14.168-11.689 0.869-0.127 1.719-0.181 2.569-0.181 5.193 0 9.916 2.334 13.263 6.007 23.269-5.085 45.507-11.092 65.267-16.882 51.642-29.385 80.412-52.239 95.756-76.141 3.456-5.392 9.301-8.323 15.254-8.323 3.347 0 6.731 0.923 9.753 2.859 8.414 5.41 10.857 16.593 5.465 25.007-12.286 19.126-29.892 36.623-56.4 55.478 4.904 1.882 10.857 4.198 18.637 6.894 2.533 0.887 4.994 1.936 7.527 3.022l2.931 1.267c0 0 0.036 0 0.054 0 0.109 0.054 0.235 0.090 0.344 0.127 55.278 22.781 113.85 29.693 166.776 21.297 0.018 0 0.036-0.018 0.054-0.018 1.99-0.308 3.945-0.76 5.935-1.122 30.543-5.555 59.133-16.104 83.831-31.991 56.093-36.062 93.856-81.841 106.45-128.923 0.072-0.253 0.145-0.47 0.217-0.742 6.948-26.382 11.219-53.668 13.318-81.588 0.036-0.434 0.072-0.869 0.109-1.303 6.188-84.555-7.31-174.792-25.875-262.478l-0.326-1.52c-5.374-25.26-11.146-50.266-16.991-74.911-6.785-2.099-12.015-8.034-12.702-15.561-0.507-5.627 1.809-10.676 5.555-14.349-0.742-3.076-1.484-6.17-2.208-9.228-6.677-27.485-13.155-54.392-18.981-80.43z" />
<glyph unicode="&#xe91d;" glyph-name="molar-tooth" d="M891.203 887.18c-88.946 81.304-189.63 81.193-264.89 62.95-74.977-18.172-153.647-18.172-228.625 0-75.26 18.244-175.945 18.355-264.896-62.95-168.536-154.052-32.917-429.24 7.902-476.641s42.133-110.6 71.101-239.637c28.968-129.038 65.833-251.488 139.568-233.055s93.487 107.966 111.92 227.787c1.27 8.24 2.59 15.97 3.954 23.235 9.371 49.818 80.151 49.818 89.522 0 1.364-7.259 2.689-14.994 3.959-23.235 18.432-119.821 38.184-209.355 111.92-227.787s110.6 104.018 139.568 233.055c28.968 129.038 30.283 192.237 71.101 239.637s176.438 322.589 7.896 476.641zM376.427 827.33c-2.041-15.138-15.943-25.774-31.070-23.8-5.418 0.671-125.616 13.941-159.387-117.282-3.222-12.51-14.484-20.822-26.833-20.822-2.29 0-4.614 0.283-6.932 0.882-14.828 3.815-23.756 18.931-19.941 33.759 37.003 143.788 160.329 166.496 220.373 158.438 15.177-2.041 25.824-15.998 23.789-31.175z" />
<glyph unicode="&#xe91e;" glyph-name="molar-two" d="M943.223 499.2h-38.298c-75.418 0-144.538-42.547-179.422-108.032-8.994 14.012-19.405 27.187-31.266 39.168-16.179 16.316-33.638 40.943-52.122 67.038-42.274 59.631-85.982 121.293-138.633 121.293-51.166 0-93.303-63.932-134.059-125.764-18.244-27.682-35.482-53.828-51.507-70.98-10.684-11.435-19.763-23.996-27.989-37.018-45.756 70.929-124.382 114.295-209.476 114.295-20.48 0-39.134-9.506-51.2-26.044-12.066-16.572-15.36-37.239-9.079-56.73l140.817-436.514c8.448-26.266 32.683-43.913 60.279-43.913h581.137c27.597 0 51.814 17.63 60.279 43.895l140.817 436.514c6.281 19.507 2.97 40.175-9.079 56.73-12.066 16.555-30.72 26.061-51.2 26.061zM342.869 398.609c17.988 19.268 35.994 46.575 55.057 75.503 32.427 49.203 72.789 110.421 105.557 110.421 35.004 0 75.264-56.798 110.78-106.923 19.319-27.255 37.564-52.992 55.723-71.322 18.466-18.637 32.853-40.585 43.076-64.341 1.075-2.509 1.997-5.069 2.97-7.595 1.963-5.086 3.738-10.257 5.325-15.479 0.7-2.338 1.485-4.642 2.099-6.997 1.843-6.997 3.311-14.080 4.437-21.248 0.375-2.406 0.649-4.813 0.939-7.236 0.768-6.11 1.28-12.254 1.519-18.432 0.068-1.775 0.239-3.55 0.273-5.342 0.102-7.629-0.273-15.275-0.99-22.903-0.188-2.014-0.427-4.045-0.683-6.042-0.973-7.953-2.219-15.906-4.113-23.791-3.618-15.036-7.117-29.747-10.325-44.049l-3.14-14.199c-8.755-39.817-17.015-77.431-36.164-110.985-7.287-12.766-11.844-14.524-11.776-14.592-1.434 0.341-13.773 5.035-33.485 65.775-2.901 8.96-5.376 18.5-7.919 28.16-10.001 38.315-21.333 81.749-61.065 105.404-44.476 26.487-94.345 10.462-130.133-41.865-19.268-28.194-29.85-59.221-40.055-89.225-3.925-11.554-7.868-23.108-12.322-34.543-6.212-15.94-11.622-28.092-21.965-34.543-3.891 2.509-11.452 11.759-24.252 42.94l-1.331 3.243c-16.418 39.663-29.867 85.35-41.097 139.674-1.587 7.646-2.577 15.326-3.328 23.006-0.171 1.775-0.341 3.55-0.461 5.325-0.546 7.526-0.785 15.053-0.546 22.528 0.034 1.109 0.171 2.202 0.239 3.311 0.29 6.212 0.939 12.39 1.758 18.517 0.358 2.628 0.717 5.239 1.178 7.851 0.939 5.478 2.15 10.906 3.516 16.282 1.195 4.625 2.577 9.216 4.079 13.79 0.853 2.645 1.741 5.274 2.714 7.885 1.587 4.284 3.243 8.567 5.12 12.783 9.506 21.538 22.374 41.677 38.793 59.255zM971.025 426.889l-140.817-436.514c-3.908-12.1-15.087-20.241-27.802-20.241h-581.137c-12.732 0-23.893 8.141-27.802 20.241l-140.817 436.514c-2.901 8.994-1.365 18.534 4.198 26.163s14.165 12.015 23.603 12.015c78.182 0 150.084-42.394 188.126-110.797 0.58-2.099 1.195-4.181 1.809-6.246-1.382-3.345-2.389-6.827-3.635-10.223-1.485-4.028-2.901-8.055-4.164-12.134-1.126-3.635-2.236-7.253-3.191-10.94-1.929-7.356-3.567-14.763-4.813-22.238-0.358-2.167-0.58-4.335-0.87-6.519-1.007-7.219-1.707-14.473-2.065-21.76-0.085-1.621-0.239-3.209-0.29-4.83-0.273-8.653-0.017-17.306 0.614-25.975 0.137-1.826 0.324-3.635 0.495-5.461 0.853-8.943 2.031-17.886 3.874-26.795 11.674-56.457 25.737-104.158 43.008-145.835l1.297-3.157c9.984-24.286 26.692-64.956 58.214-64.956h3.465l3.191 1.348c27.511 11.657 37.871 38.212 44.732 55.808 4.625 11.895 8.738 23.927 12.834 35.925 9.916 29.116 19.285 56.61 35.925 80.964 1.894 2.765 4.335 6.059 7.168 9.523 15.223 18.551 43.418 42.496 77.312 22.272 27.699-16.486 36.352-49.613 45.5-84.685 2.697-10.325 5.359-20.514 8.482-30.089 13.756-42.342 31.915-86.067 62.43-89.19 16.845-1.775 31.983 8.892 44.954 31.642 21.709 38.059 30.942 80.009 39.851 120.576l3.106 14.046c3.174 14.131 6.656 28.689 10.223 43.554 1.417 5.888 2.543 11.81 3.516 17.749 0.273 1.638 0.444 3.277 0.683 4.898 0.631 4.471 1.178 8.943 1.57 13.414 0.154 1.707 0.273 3.396 0.375 5.103 0.324 4.745 0.495 9.472 0.529 14.217 0.017 1.28 0.051 2.56 0.051 3.857-0.068 12.442-1.058 24.832-2.953 37.052-0.085 0.58-0.222 1.161-0.307 1.758-0.887 5.427-1.963 10.82-3.191 16.162-0.273 1.212-0.58 2.406-0.87 3.601-1.246 5.035-2.628 10.001-4.181 14.95-0.29 0.939-0.563 1.877-0.87 2.833-1.929 5.888-4.011 11.725-6.366 17.459l1.041 4.642c24.9 64.939 88.201 108.476 157.867 108.476h38.298c9.438 0 18.057-4.386 23.603-12.015s7.1-17.169 4.198-26.163zM989.884 785.203h-241.169c-112.401 0-218.078 43.759-297.54 123.238l-46.558 46.558c-0.034 0.034-0.051 0.034-0.085 0.068-1.434 1.417-3.089 2.441-4.847 3.277-0.495 0.222-0.99 0.358-1.502 0.546-1.536 0.546-3.106 0.87-4.727 0.956-0.324-0.017-0.597 0.154-0.905 0.154h-204.8c-9.421 0-17.067-7.629-17.067-17.067v-204.8c0-60.058 44.595-109.773 102.4-118.101v-57.31c-10.155-5.922-17.067-16.811-17.067-29.389 0-18.825 15.309-34.133 34.133-34.133s34.133 15.309 34.133 34.133c0 12.578-6.912 23.467-17.067 29.389v57.31c57.805 8.329 102.4 58.044 102.4 118.101v23.945c82.091-72.38 189.645-113.408 300.459-113.408h279.808c9.421 0 17.067 7.629 17.067 17.067v102.4c0 9.438-7.646 17.067-17.067 17.067zM846.831 682.803l-34.133 68.267h56.371l39.885-68.267h-62.123zM774.537 751.070l34.133-68.267h-64.239l-35.021 70.042c13.005-1.109 26.112-1.775 39.305-1.775h25.822zM375.484 925.867v-17.067h-34.133c-9.421 0-17.067-7.629-17.067-17.067s7.646-17.067 17.067-17.067h34.133v-102.4h-170.667v102.4h34.133c9.421 0 17.067 7.629 17.067 17.067s-7.646 17.067-17.067 17.067h-34.133v17.067h170.667zM290.15 652.8c-47.053 0-85.333 38.281-85.333 85.333h170.667c0-47.053-38.281-85.333-85.333-85.333zM409.617 901.734l17.425-17.425c66.697-66.714 150.511-110.012 241.51-126.106l37.649-75.298c-111.616 1.041-219.426 46.78-296.602 126.071v92.757zM972.817 682.803h-24.337l-39.885 68.267h64.222v-68.267z" />
<glyph unicode="&#xe91f;" glyph-name="phone" d="M709.53 956.918c-173.677 0-314.468-111.427-314.468-248.881 0-81.888 50.194-154.313 127.316-199.668-7.543-41.353-31.562-90.072-65.148-123.66 82 6.121 154.172 29.634 201.428 77.993 16.6-2.142 33.511-3.546 50.874-3.546 173.678 0 314.47 111.427 314.47 248.881-0.002 137.452-140.795 248.881-314.472 248.881zM562.117 658.9c-27.138 0-49.137 21.999-49.137 49.139 0 27.138 21.999 49.139 49.137 49.139s49.137-22.001 49.137-49.139c0-27.141-21.999-49.139-49.137-49.139zM709.53 658.9c-27.138 0-49.137 21.999-49.137 49.139 0 27.138 21.999 49.139 49.137 49.139 27.139 0 49.137-22.001 49.137-49.139 0-27.141-21.999-49.139-49.137-49.139zM856.942 658.9c-27.139 0-49.137 21.999-49.137 49.139 0 27.138 21.999 49.139 49.137 49.139 27.139 0 49.139-22.001 49.139-49.139 0-27.141-21.999-49.139-49.139-49.139zM648.495 135.329c-99.704 80.128-127.585 40.739-172.825-4.494-31.582-31.595-111.509 34.383-180.52 103.399-69.016 69.023-134.979 148.935-103.399 180.523 45.242 45.235 84.619 73.132 4.467 172.807-80.125 99.715-133.537 23.16-177.359-20.666-50.593-50.576-2.665-239.050 183.609-425.358 186.301-186.278 374.776-234.173 425.34-183.617 43.816 43.831 120.394 97.236 20.687 177.406zM124.453 533.504c-1.345-0.55-3.32-1.359-5.831-2.386-4.754-1.82-10.437-3.882-16.764-6.634-2.952-1.422-6.261-2.962-9.28-4.859-3.131-1.869-6.241-3.989-9.045-6.611-3.064-2.48-5.445-5.649-8.2-8.97-2.048-3.663-4.692-7.406-6.119-11.903-2.073-4.257-2.816-9.161-4.054-13.985-0.954-4.894-1.119-9.981-1.727-14.95-0.062-10.041 0.328-19.685 1.621-27.904 0.676-8.356 2.798-15.415 3.634-20.308 1.026-4.909 1.61-7.712 1.61-7.712s-1.508 2.438-4.146 6.706c-2.501 4.399-6.748 10.049-10.476 18.082-4.297 7.811-8.304 17.421-12.117 28.234-1.357 5.578-3.197 11.364-4.216 17.567-0.718 6.268-1.904 12.733-1.427 19.541-0.206 6.797 1.185 13.665 2.448 20.605 2.010 6.725 4.15 13.54 7.429 19.603 2.995 6.198 6.766 11.808 10.534 16.699 3.791 5.041 7.703 9.167 11.391 13.006 7.357 7.238 13.745 12.527 17.467 15.773 2.13 1.784 3.002 2.749 3.952 3.596 0.84 0.786 1.288 1.206 1.288 1.206l34.192-53.477c0.005 0-0.75-0.32-2.163-0.92zM637.602 25.483c-3.355-4.176-8.615-10.637-15.75-17.957-3.802-3.604-7.724-7.509-12.606-11.199-4.571-3.82-10.131-7.317-15.792-10.598-5.836-3.209-12.045-5.96-18.603-8.006-6.49-1.978-13.227-3.572-19.841-4.111l-9.838-0.703-9.544 0.514c-6.28 0.082-12.129 1.755-17.763 2.692-5.619 1.042-10.714 3.131-15.593 4.529-4.879 1.317-9.254 3.723-13.302 5.324-8.199 3.254-14.072 7.016-18.501 9.343-4.35 2.399-6.833 3.768-6.833 3.768s2.803-0.432 7.708-1.183c4.874-0.654 11.99-2.194 20.231-2.359 4.15-0.085 8.406-0.81 13.123-0.373 4.655 0.363 9.51 0.127 14.369 0.997 4.826 0.967 9.833 1.242 14.48 2.997l6.981 2.14 6.475 3.027c17.097 8.281 26.398 22.869 31.789 35.049 2.667 6.281 4.576 11.826 6.019 16.166 1.569 4.568 2.465 7.176 2.465 7.176l55.383-31.013c-0.003-0.002-1.842-2.267-5.058-6.221z" />
<glyph unicode="&#xe920;" glyph-name="pills" d="M833.315 366.42h-322.118l-47.151-47.151h90.199v-287.081h-219.709c-66.897 0-123.082 46.055-138.932 108.083-1.704-0.037-3.409-0.122-5.125-0.122-14.755 0-29.498 1.437-44.034 4.273 14.986-90.296 93.596-159.385 188.080-159.385h498.779c105.149 0 190.697 85.536 190.697 190.685s-85.536 190.697-190.685 190.697zM789.865 34.587h-157.888c-11.164 0-20.209 9.045-20.209 20.209s9.045 20.209 20.209 20.209h157.888c11.164 0 20.209-9.045 20.209-20.209s-9.045-20.209-20.209-20.209zM870.422 34.587h-7.84c-11.164 0-20.209 9.045-20.209 20.209s9.045 20.209 20.209 20.209h7.84c11.164 0 20.209-9.045 20.209-20.209s-9.045-20.209-20.209-20.209zM678.008 855.302c-35.877 35.89-83.771 55.648-134.842 55.648s-98.952-19.759-134.842-55.648l-352.688-352.688c-35.877-35.877-55.636-83.759-55.636-134.83s19.759-98.952 55.648-134.842c37.18-37.18 85.999-55.758 134.842-55.758 48.831 0 97.674 18.59 134.842 55.758l352.688 352.688c35.89 35.89 55.648 83.771 55.648 134.842s-19.771 98.952-55.661 134.83zM291.987 266.287c-55.977-55.965-147.041-55.965-202.993 0-26.978 26.978-41.843 63.026-41.843 101.497s14.865 74.519 41.843 101.497l155.356 155.356 202.993-202.993-155.356-155.356zM612.255 589.952l-111.638-111.638c-3.944-3.944-9.119-5.917-14.293-5.917s-10.348 1.972-14.293 5.917c-7.889 7.889-7.889 20.684 0 28.573l111.65 111.638c7.889 7.889 20.684 7.889 28.573 0s7.889-20.684 0-28.573zM669.218 646.915l-5.539-5.539c-3.944-3.944-9.119-5.917-14.293-5.917s-10.336 1.972-14.293 5.917c-7.889 7.889-7.889 20.684 0 28.573l5.539 5.539c7.889 7.889 20.684 7.889 28.573 0 7.901-7.889 7.901-20.684 0.012-28.573z" />
<glyph unicode="&#xe921;" glyph-name="pinterest" d="M810.035 855.067c-70.486 67.666-168.031 104.933-274.665 104.933-162.889 0-263.073-66.771-318.432-122.781-68.227-69.026-107.351-160.679-107.351-251.464 0-113.986 47.678-201.474 127.52-234.022 5.36-2.196 10.754-3.303 16.041-3.303 16.844 0 30.19 11.021 34.814 28.7 2.695 10.143 8.94 35.164 11.655 46.026 5.813 21.451 1.116 31.769-11.559 46.707-23.092 27.323-33.846 59.633-33.846 101.683 0 124.901 93.004 257.646 265.378 257.646 136.771 0 221.733-77.735 221.733-202.868 0-78.964-17.009-152.092-47.902-205.923-21.468-37.403-59.217-81.989-117.17-81.989-25.061 0-47.572 10.294-61.777 28.241-13.419 16.966-17.841 38.883-12.445 61.724 6.097 25.807 14.41 52.727 22.455 78.753 14.674 47.532 28.545 92.426 28.545 128.244 0 61.265-37.664 102.43-93.714 102.43-71.232 0-127.038-72.349-127.038-164.709 0-45.296 12.038-79.175 17.488-92.185-8.973-38.021-62.305-264.060-72.421-306.685-5.849-24.882-41.086-221.409 17.237-237.081 65.529-17.607 124.102 173.798 130.063 195.427 4.832 17.59 21.738 84.103 32.099 124.99 31.633-30.471 82.567-51.070 132.128-51.070 93.43 0 177.454 42.043 236.595 118.378 57.358 74.040 88.948 177.236 88.948 290.564 0 88.598-38.047 175.941-104.378 239.63z" />
<glyph unicode="&#xe922;" glyph-name="placeholder-on-map" d="M863.901 395.261l157.671-323.9c6.412-13.173-0.328-23.95-14.979-23.95h-989.189c-14.651 0-21.392 10.777-14.979 23.95l157.673 323.9c2.508 5.152 9.249 9.368 14.979 9.368h135.196c4.166 0 9.793-2.609 12.521-5.759 9.172-10.6 18.516-20.955 27.832-31.205 8.848-9.73 17.743-19.587 26.567-29.674h-160.445c-5.731 0-12.472-4.215-14.979-9.368l-104.451-214.575h829.356l-104.443 214.575c-2.506 5.153-9.248 9.368-14.98 9.368h-160.808c8.823 10.088 17.721 19.945 26.569 29.674 9.345 10.28 18.74 20.616 27.934 31.219 2.724 3.142 8.339 5.746 12.499 5.746h135.481c5.727 0 12.467-4.213 14.975-9.368zM743.807 616.612c0-176.985-147.339-210.178-216.633-380.26-5.63-13.821-25.088-13.75-30.72 0.067-62.509 153.351-188.466 195.403-212.565 332.017-23.728 134.49 69.389 266.232 205.35 279.084 138.273 13.071 254.568-95.337 254.568-230.907zM634.335 616.612c0 67.658-54.846 122.505-122.505 122.505s-122.505-54.848-122.505-122.505c0-67.659 54.846-122.505 122.505-122.505s122.505 54.846 122.505 122.505z" />
<glyph unicode="&#xe923;" glyph-name="play-button" d="M955.212 703.89c-68.35 118.384-178.71 203.070-310.754 238.45-132.042 35.384-269.958 17.226-388.348-51.128-118.388-68.352-203.070-178.712-238.45-310.756-35.38-132.042-17.222-269.962 51.128-388.346 68.348-118.384 178.712-203.070 310.754-238.45 44.092-11.816 88.834-17.66 133.292-17.66 88.678 0 176.202 23.258 255.058 68.786 118.384 68.35 203.070 178.71 238.45 310.754 35.382 132.046 17.22 269.962-51.13 388.35zM954.858 329.334c-31.696-118.292-107.56-217.162-213.62-278.394-106.056-61.234-229.612-77.498-347.904-45.806-118.294 31.696-217.162 107.56-278.396 213.62-61.232 106.056-77.498 229.614-45.8 347.908 31.698 118.292 107.562 217.158 213.62 278.394 70.65 40.79 149.048 61.624 228.498 61.624 39.82 0 79.918-5.236 119.404-15.818 118.292-31.696 217.162-107.56 278.394-213.62 61.234-106.058 77.502-229.614 45.804-347.908zM757.556 496.296l-329.052 189.98c-17.462 10.082-38.31 10.078-55.772 0.002-17.462-10.080-27.888-28.138-27.888-48.3v-379.96c0-20.162 10.424-38.218 27.888-48.3 8.73-5.042 18.304-7.56 27.882-7.56 9.58 0 19.158 2.524 27.888 7.562l329.056 189.978c17.46 10.084 27.882 28.14 27.882 48.302 0 20.16-10.424 38.216-27.884 48.296zM730.904 445.852l-329.054-189.978c-0.402-0.234-1.24-0.716-2.472 0-1.236 0.714-1.236 1.678-1.236 2.142v379.96c0 0.464 0 1.428 1.236 2.142 0.484 0.28 0.906 0.376 1.266 0.376 0.56 0 0.964-0.234 1.21-0.376l329.052-189.98c0.402-0.232 1.236-0.714 1.236-2.142s-0.838-1.912-1.238-2.144zM826.606 691.12c-63.378 81.876-158.652 136.884-261.396 150.922-14.566 1.994-28.018-8.212-30.012-22.798-1.99-14.582 8.216-28.018 22.798-30.012 89.024-12.162 171.566-59.818 226.464-130.738 5.252-6.784 13.13-10.336 21.092-10.336 5.698 0 11.44 1.818 16.292 5.578 11.638 9.008 13.77 25.746 4.762 37.384z" />
<glyph unicode="&#xe924;" glyph-name="police-station" d="M1004.691 544.74l-458.165 393.76c-19.855 17.062-49.194 17.062-69.049 0l-458.168-393.76c-17.587-15.117-23.911-39.583-15.852-61.326 8.059-21.746 28.801-36.178 51.994-36.178h58.889v-460.508c0-23.209 18.814-42.023 42.023-42.023h711.274c23.209 0 42.023 18.814 42.023 42.023v460.508h58.889c23.192 0 43.931 14.432 51.994 36.178 8.059 21.743 1.735 46.209-15.852 61.326zM512 26.759c-174.665 0-316.26 141.595-316.26 316.26s141.595 316.26 316.26 316.26c174.665 0 316.26-141.595 316.26-316.26s-141.595-316.26-316.26-316.26zM699.382 432.713c-10.273 0-19.22-5.639-23.95-13.98l-94.675 20.45-48.343 83.095c4.412 4.884 7.121 11.334 7.121 18.432 0 15.207-12.328 27.534-27.538 27.534-15.207 0-27.534-12.328-27.534-27.534 0-7.098 2.71-13.548 7.121-18.432l-48.343-83.095-94.672-20.45c-4.731 8.341-13.674 13.98-23.95 13.98-15.207 0-27.538-12.328-27.538-27.538 0-15.207 12.328-27.538 27.538-27.538 4.229 0 8.215 0.981 11.796 2.683l64.335-71.928-9.791-96.211c-12.74-2.417-22.375-13.594-22.375-27.036 0-15.207 12.328-27.538 27.534-27.538s27.538 12.328 27.538 27.538c0 1.13-0.090 2.241-0.223 3.335l88.568 39.081 89.721-39.593c-0.093-0.931-0.143-1.872-0.143-2.826 0-15.207 12.328-27.538 27.534-27.538s27.538 12.328 27.538 27.538c0 13.877-10.276 25.324-23.628 27.225l-9.771 96.021 64.335 71.928c3.581-1.702 7.57-2.683 11.796-2.683 15.207 0 27.538 12.331 27.538 27.538 0 15.213-12.328 27.541-27.538 27.541z" />
<glyph unicode="&#xe925;" glyph-name="premolar" d="M397.122 642.114l-22.242-7.067c-8.979-2.851-13.946-12.444-11.095-21.439 2.304-7.272 9.030-11.897 16.267-11.897 1.724 0 3.465 0.256 5.172 0.802l11.897 3.772v-66.605l-22.242-7.067c-8.979-2.851-13.946-12.444-11.095-21.439 2.304-7.272 9.030-11.897 16.267-11.897 1.724 0 3.465 0.256 5.172 0.802l11.897 3.772v-66.605l-22.242-7.067c-8.979-2.851-13.946-12.444-11.095-21.439 2.304-7.272 9.030-11.897 16.267-11.897 1.724 0 3.465 0.256 5.172 0.802l11.897 3.772v-38.714h34.139v-56.893l59.743-79.663h51.209l59.743 79.663v56.927h34.139v112.881l22.463 7.494c8.944 2.97 13.775 12.631 10.788 21.593-2.97 8.927-12.614 13.792-21.593 10.788l-11.676-3.892v66.435l22.463 7.494c8.944 2.97 13.775 12.631 10.788 21.593-2.97 8.927-12.614 13.792-21.593 10.788l-11.676-3.892v66.435l22.463 7.494c7.152 2.373 11.454 9.047 11.454 16.182h281.186l-1.809 18.725c-1.69 17.428-4.336 25.297-7.425 34.463-1.485 4.438-3.209 9.542-5.189 16.984-13.963 52.83-54.844 103.253-115.083 141.984-77.018 49.536-184.521 57.712-273.829 20.757l-3.243-1.383c-1.622-0.7-3.209-1.4-4.882-1.98-7.937-2.748-14.031-5.121-18.998-7.050-15.738-6.094-15.721-6.111-41.667 1.536-55.391 16.353-160.283 39.499-240.441 11.078-98.047-34.736-152.123-107.64-160.744-216.697l-1.451-18.418h320.719v-62.014zM113.871 738.267c11.693 85.228 56.364 140.533 136.129 168.817 73.74 26.099 178.001 0.529 219.394-11.658 33.985-10.054 39.345-10.088 63.686-0.615 4.66 1.809 10.378 4.028 17.786 6.623 2.441 0.836 4.848 1.844 7.289 2.902l2.731 1.161c79.288 32.808 174.433 25.758 242.37-17.923 53.052-34.122 88.761-77.444 100.556-122.013 2.219-8.381 4.148-14.134 5.838-19.135 1.007-2.97 1.844-5.496 2.595-8.159h-310.29v-33.234l-39.533-13.178c-8.944-2.97-13.775-12.631-10.788-21.593 2.39-7.152 9.047-11.676 16.199-11.676 1.775 0 3.602 0.29 5.394 0.888l28.745 9.576v-66.452l-39.533-13.178c-8.944-2.97-13.775-12.631-10.788-21.593 2.39-7.152 9.047-11.676 16.199-11.676 1.775 0 3.602 0.29 5.394 0.888l28.745 9.576v-66.452l-39.533-13.178c-8.944-2.97-13.775-12.631-10.788-21.593 2.39-7.152 9.047-11.676 16.199-11.676 1.775 0 3.602 0.29 5.394 0.888l28.745 9.576v-67.356h-34.139v-79.663l-42.674-56.893h-17.070l-42.674 56.893v79.715h-34.139v15.414l73.45 23.317c8.979 2.851 13.946 12.444 11.095 21.439s-12.495 13.98-21.439 11.095l-63.106-20.040v66.588l73.45 23.317c8.979 2.851 13.946 12.444 11.095 21.439s-12.495 13.98-21.439 11.095l-63.106-20.040v66.588l73.45 23.317c8.979 2.851 13.946 12.444 11.095 21.439s-12.495 13.98-21.439 11.095l-63.106-20.040v85.365h-317.442zM944.098 635.85h-222.655v-34.139h191.435c6.964-105.643-19.237-208.231-44.62-307.593-7.835-30.64-15.943-62.321-22.958-93.677l-4.95-22.361c-13.314-60.614-27.089-123.293-57.934-177.352-10.378-18.179-21.030-28.865-28.113-27.857-7.818 0.802-29.428 13.161-60.921 110.201-10.805 33.268-24.085 75.737-39.482 126.229-0.239 0.768-0.478 1.502-0.734 2.219l-0.649 2.27-0.205-0.068c-5.548 13.144-14.355 13.809-21.047 11.812l-16.199-4.848 3.158-11.044c-7.818-21.491-20.381-46.685-29.735-65.445l-7.92-16.028c-11.932-24.58-26.799-55.169-50.833-62.287-42.93-12.853-82.395 58.173-105.95 100.556-3.619 6.521-6.93 12.461-9.917 17.547l-5.684 9.405-10.668-0.853c-8.705-0.683-19.528-1.536-81.439-160.436-10.924-28.028-21.149-50.526-42.879-61.57-19.357 4.831-40.028 55.152-48.051 74.696l-2.065 5.018c-57.866 139.748-80.722 296.719-102.81 448.536-3.124 21.439-6.213 42.759-9.405 63.891l-1.092 7.237c-2.304 15.089-3.158 20.603-2.697 31.818h204.732v34.139h-236.532l-1.246-15.721c-2.151-27.26-1.553-32.432 1.963-55.408l1.092-7.135c3.175-21.098 6.265-42.349 9.371-63.738 22.395-153.899 45.541-313.021 105.046-456.695l2.031-4.916c14.782-35.983 39.516-96.238 82.565-96.238h3.465l3.192 1.348c39.499 16.728 54.281 54.64 65.086 82.326 16.25 41.701 37.741 91.646 51.311 120.75 29.001-51.669 75.14-126.536 140.243-107.299 38.458 11.402 57.746 51.123 71.829 80.107l7.75 15.721c4.438 8.893 9.576 19.186 14.646 29.957 10.293-33.286 19.408-62.235 27.26-86.372 20.654-63.635 47.487-129.267 89.905-133.637 22.395-2.287 42.93 12.819 61.245 44.91 33.422 58.583 47.76 123.822 61.621 186.928l4.916 22.225c6.913 30.879 14.953 62.287 22.72 92.705 27.362 107.043 55.63 217.705 44.278 334.75l-1.468 15.414z" />
<glyph unicode="&#xe926;" glyph-name="quote" d="M411.381 720.176c25.608 10.739 36.347 41.303 24.782 66.085l-40.477 85.085c-11.565 23.948-39.651 34.695-64.433 23.948-70.216-29.738-130.518-68.563-178.43-115.649-58.651-55.338-98.302-118.945-119.78-189.161-21.478-71.050-33.043-167.691-33.043-290.775v-253.602c0-27.26 22.304-49.564 49.564-49.564h324.644c27.26 0 49.564 22.304 49.564 49.564v324.644c0 27.268-22.304 49.564-49.564 49.564h-155.3c1.652 83.441 21.478 150.344 57.825 200.742 29.738 40.461 74.346 73.503 134.649 99.12zM994.584 720.176c25.608 10.739 36.339 41.303 24.782 66.085l-40.477 84.25c-11.565 23.956-39.651 34.695-64.433 23.956-69.39-29.738-128.875-68.563-177.604-114.823-58.659-56.173-99.128-119.78-120.614-189.995-21.478-69.381-32.208-166.039-32.208-289.949v-253.602c0-27.26 22.304-49.564 49.564-49.564h324.644c27.26 0 49.564 22.304 49.564 49.564v324.644c0 27.268-22.304 49.564-49.564 49.564h-156.127c1.652 83.441 21.486 150.344 57.825 200.742 29.738 40.469 74.346 73.512 134.649 99.128z" />
<glyph unicode="&#xe927;" glyph-name="siren-light" d="M511.999 746.269c18.082 0 32.714 14.646 32.714 32.714v102.778c0 18.066-14.633 32.716-32.714 32.716s-32.714-14.65-32.714-32.716v-102.776c0-18.070 14.633-32.716 32.714-32.716zM240.090 668.123c6.483-7.715 15.751-11.692 25.111-11.692 7.41 0 14.855 2.506 20.991 7.653 13.831 11.611 15.653 32.233 4.056 46.085l-66.037 78.735c-11.599 13.835-32.204 15.672-46.102 4.040-13.833-11.611-15.655-32.233-4.056-46.085l66.037-78.735zM133.925 428.959c15.589 0 29.391 11.149 32.171 27.026 3.161 17.796-8.72 34.76-26.518 37.906l-101.18 17.875c-17.759 3.099-34.758-8.739-37.887-26.531-3.161-17.799 8.72-34.76 26.518-37.908l101.178-17.875c1.915-0.334 3.832-0.493 5.719-0.493zM985.603 511.735l-101.249-17.842c-17.792-3.132-29.677-20.11-26.514-37.889 2.777-15.877 16.58-27.043 32.173-27.043 1.884 0 3.801 0.158 5.719 0.493l101.244 17.842c17.796 3.132 29.677 20.114 26.518 37.889-3.134 17.811-20.099 29.696-37.892 26.55zM758.734 656.381c9.36 0 18.626 3.978 25.080 11.68l66.035 78.687c11.63 13.852 9.81 34.488-4.023 46.102-13.864 11.616-34.503 9.76-46.071-4.023l-66.037-78.689c-11.626-13.852-9.806-34.488 4.025-46.102 6.135-5.145 13.578-7.655 20.991-7.655zM83.32 138.966h857.361v-157.442h-857.361v157.442zM511.999 703.297c-169.39 0-306.704-137.314-306.704-306.702v-209.375h613.407v209.375c0 169.387-137.314 306.702-306.704 306.702zM270.727 252.653v143.943c0 126.88 98.527 230.983 223.063 240.347-71.182-56.086-117.155-142.668-117.155-240.347v-143.943h-105.908z" />
<glyph unicode="&#xe928;" glyph-name="stethoscope" d="M208.125 424.047c1.864-20.667 13.496-40.113 32.963-51.015 16.16-9.052 32.815-15.707 49.829-20.214-9.586-32.352-27.199-79.173-58.551-129.317-29.779-47.656-30.134-105.165-0.937-157.801 43.012-77.572 137.987-129.7 236.37-129.7 67.568 0 127.639 31.117 169.132 87.625 59.306 80.791 72.447 200.020 35.132 318.874-34.588 110.177 11.671 168.956 42.279 194.221 24.953-24.047 58.797-38.877 96.203-38.877 76.645 0 138.822 62.159 138.822 138.843s-62.177 138.826-138.822 138.826c-76.684 0-138.826-62.159-138.826-138.826 0-10.797 1.344-21.246 3.672-31.334-57.8-42.279-124.522-137.443-77.828-286.23 29.446-93.82 20.411-189.328-23.612-249.277-18.663-25.444-52.254-55.764-106.172-55.764-69.759 0-138.879 36.806-168.068 89.478-10.769 19.428-19.684 48.856-1.116 78.572 41.468 66.378 62.223 128.32 72.065 166.18 23.047 3.471 45.55 10.906 67.196 22.464 19.295 10.305 31.134 28.954 33.742 49.109 91.721 82.918 134.070 232.319 136.506 241.063 4.946 17.936-3.507 36.35-19.263 44.746 12.668 112.16-28.846 168.689-53.893 191.715 1.909 10.776-2.401 22.303-11.867 28.481l-46.027 30.081c-12.022 7.852-27.136 3.889-33.725-8.905l-21.931-42.384c-6.606-12.798-0.783-26.445 13.015-30.516l52.036-15.339c13.194-3.889 29 2.415 36.469 13.977 20.737-21.847 50.601-70.485 40.313-163.27-14.142-2.692-26.262-12.994-30.369-27.807-12.503-44.876-48.614-137.569-102.23-193.151-17.066 6.595-36.687 6.269-54.090-2.998-11.334-6.055-22.419-9.105-33.795-9.344h-2.345c-11.987 0.256-23.693 3.636-35.68 10.341-16.975 9.523-36.308 10.362-53.356 4.345-52.416 55.81-87.758 146.541-100.054 190.799-4.117 14.774-16.287 25.1-30.379 27.789-10.305 92.785 19.547 141.423 40.313 163.27 7.476-11.559 23.265-17.866 36.459-13.973l52.036 15.339c13.777 4.072 19.639 17.74 13.015 30.516l-21.913 42.387c-6.606 12.798-21.72 16.757-33.725 8.905l-46.073-30.102c-9.46-6.178-13.759-17.701-11.86-28.481-25.009-23.029-66.558-79.534-53.883-191.712-15.767-8.4-24.191-26.81-19.267-44.767 2.394-8.561 43.468-153.2 132.090-236.844zM810.544 690.916c29.913 0 54.213-24.265 54.213-54.237 0-29.951-24.3-54.234-54.213-54.234-29.955 0-54.237 24.283-54.237 54.234 0 29.976 24.265 54.237 54.237 54.237z" />
<glyph unicode="&#xe929;" glyph-name="teeth" d="M301.568 840.533h49.101l-55.569-477.867h-44.732v-34.133h40.755l-1.98-17.067h-42.359v-34.133h38.383l-1.98-17.067h-39.97v-34.133h35.994l-1.98-17.067h-37.598v-34.133h33.638l-1.98-17.067h-35.209v-34.133h31.249l-7.714-66.304c-1.075-9.353 5.615-17.835 14.985-18.91 0.649-0.085 1.314-0.119 1.963-0.119 8.55 0 15.923 6.4 16.93 15.104l8.175 70.229h36.796v34.133h-32.836l1.98 17.067h34.406v34.133h-30.447l1.98 17.067h32.034v34.133h-28.075l1.98 17.067h29.662v34.133h-25.685l1.98 17.067h27.29v34.133h-23.313l55.603 477.867h53.077v85.333h17.067v34.133h-170.667v-34.133h17.067v-85.333zM934.724 675.806c-13.961 52.804-54.835 103.219-115.063 141.943-40.533 26.061-90.539 39.851-144.589 39.851-43.486 0-88.183-8.977-129.246-25.958l-3.277-1.399c-1.621-0.7-3.209-1.399-4.796-1.946-7.953-2.765-14.029-5.12-18.995-7.049-8.892-3.447-12.151-4.642-15.411-4.642-4.506 0-12.049 1.997-27.682 6.605l-3.43 0.956v-17.766h-56.815l-47.633-409.6h19.115l-3.584-102.4-3.567-51.2-3.584-51.2-3.567-51.2v-51.2h-40.533l-4.659-40.055c-3.021-25.805-24.883-45.278-50.842-45.278-2.031 0-4.13 0.119-6.212 0.375-13.278 1.536-25.446 8.311-33.946 19.046-8.465 10.718-12.288 24.081-10.701 37.666l3.277 28.245h-27.051l3.567 102.4 3.584 51.2 3.567 51.2 3.584 51.2v51.2h48.469l47.633 409.6h-44.902v36.796c-9.847 1.587-19.968 1.075-29.525-2.065l-1.246-0.41c-97.809-34.662-184.491-149.35-157.679-327.509l0.563-3.772c26.061-173.193 46.626-309.999 113.852-472.303l2.031-4.932c14.763-35.994 39.492-96.205 82.551-96.205h3.465l3.191 1.348c39.475 16.708 54.272 54.647 65.075 82.33 7.287 18.705 13.79 37.751 20.053 56.166 8.243 24.201 16.299 47.667 25.873 70.195 21.436-43.486 65.98-115.985 124.774-115.985 0.017 0 0.017 0 0.017 0 6.963 0 13.961 1.041 20.804 3.055 38.485 11.401 57.771 51.132 71.851 80.128l1.126 2.338c2.953 6.076 6.724 13.124 10.769 20.753 4.079 7.663 8.533 16.162 12.902 24.9 4.267-13.756 7.987-27.904 11.639-41.933 4.079-15.599 8.294-31.727 13.175-46.78 21.487-66.185 49.459-133.837 94.191-133.837 20.992 0 39.612 14.746 56.934 45.107 33.451 58.624 47.787 123.921 61.645 187.051l4.881 22.084c7.424 33.075 16.060 66.287 24.457 98.406 32.102 123.221 65.331 250.641 29.918 384.478zM594.825 152.371c-4.267-8.038-8.192-15.428-11.332-21.845l-1.126-2.355c-11.947-24.593-26.795-55.194-50.842-62.31-3.738-1.109-7.373-1.655-11.093-1.655-39.851 0-80.777 63.437-103.748 117.76l-1.502 3.601c1.877 3.345 3.669 6.366 5.461 9.318 1.843 2.987 3.721 5.973 5.683 8.909 0.375 0.563 0.768 1.229 1.161 1.775 10.121 14.797 21.197 27.255 32.768 37.376 21.487 18.79 44.749 29.201 67.277 29.201 15.292 0 30.771-4.608 45.961-13.653 5.495-3.277 10.479-7.014 15.138-11.025 1.621-1.399 3.106-3.021 4.659-4.54 2.782-2.679 5.513-5.41 8.004-8.346 2.167-2.56 4.215-5.342 6.229-8.175 1.451-2.014 2.918-4.011 4.267-6.093 2.679-4.181 5.257-8.619 7.714-13.363 0.29-0.563 0.597-1.109 0.887-1.673-6.673-17.442-16.64-36.164-25.566-52.907z" />
<glyph unicode="&#xe92a;" glyph-name="time-left" d="M615.437 27.319c-8.444-2.104-17.053-3.973-25.598-5.547-22.338-4.154-37.106-25.637-32.974-47.995 2.041-10.999 8.288-20.161 16.769-26.141 8.741-6.152 19.866-8.93 31.202-6.822 10.176 1.889 20.432 4.11 30.495 6.621 22.058 5.49 35.497 27.836 29.994 49.884-5.49 22.067-27.817 35.494-49.888 30zM919.854 579.088c2.884-8.69 8.389-15.785 15.342-20.687 10.31-7.262 23.802-9.705 36.676-5.448 21.585 7.167 33.28 30.443 26.139 52.017-3.253 9.835-6.863 19.701-10.709 29.307-8.444 21.11-32.389 31.387-53.509 22.943-21.099-8.439-31.38-32.391-22.93-53.507 3.231-8.074 6.258-16.362 8.99-24.625zM749.202 86.093c-7.262-4.794-14.757-9.434-22.307-13.782-19.699-11.363-26.445-36.542-15.087-56.232 3.084-5.356 7.191-9.734 11.922-13.080 12.699-8.935 29.945-10.273 44.304-2.001 8.977 5.177 17.902 10.685 26.551 16.403 18.961 12.527 24.18 38.068 11.647 57.038-12.531 18.977-38.061 24.189-57.029 11.653zM1023.608 464.115c-0.896 22.721-20.033 40.405-42.761 39.518-22.699-0.896-40.396-20.040-39.505-42.752 0.341-8.684 0.429-17.497 0.229-26.172-0.319-14.248 6.65-26.949 17.48-34.583 6.452-4.543 14.281-7.293 22.771-7.486 22.721-0.504 41.55 17.517 42.054 40.249 0.227 10.365 0.141 20.867-0.269 31.226zM913.136 194.386c-18.219 13.669-43.995 9.958-57.641-8.228-5.226-6.965-10.729-13.843-16.364-20.467-14.726-17.301-12.646-43.289 4.656-58.026 0.986-0.836 1.983-1.605 3.018-2.327 17.2-12.126 41.105-9.34 55.012 6.98 6.729 7.902 13.289 16.119 19.533 24.438 13.647 18.186 9.954 43.98-8.215 57.63zM973.647 343.194c-21.693 6.802-44.794-5.274-51.592-26.967-2.602-8.288-5.485-16.615-8.598-24.77-6.835-17.953-0.286-37.707 14.726-48.292 2.754-1.935 5.787-3.575 9.082-4.821 21.239-8.105 45.023 2.551 53.119 23.799 3.696 9.696 7.125 19.604 10.227 29.457 6.791 21.697-5.276 44.792-26.965 51.594zM435.836 21.402c-36.804 6.608-72.109 17.861-105.587 33.555-0.396 0.207-0.751 0.442-1.167 0.632-7.889 3.713-15.765 7.691-23.399 11.847-0.026 0.031-0.075 0.051-0.117 0.068-14.006 7.713-27.676 16.247-40.956 25.596-193.644 136.409-240.204 404.929-103.787 598.571 29.663 42.091 65.561 77.207 105.581 105.039 0.493 0.343 0.986 0.685 1.475 1.030 141.025 97.17 332.514 103.719 482.26 3.868l-32.162-46.47c-8.941-12.934-3.44-22.36 12.212-20.951l139.704 12.507c15.673 1.409 25.045 14.966 20.83 30.101l-37.515 135.167c-4.2 15.153-14.953 16.967-23.903 4.035l-32.237-46.58c-109.893 73.769-241.699 101.898-372.523 79.213-13.176-2.28-26.168-5.072-38.981-8.321-0.099-0.018-0.178-0.029-0.258-0.046-0.495-0.121-0.997-0.282-1.479-0.416-112.812-28.97-211.239-94.766-281.472-188.643-0.592-0.702-1.202-1.389-1.761-2.153-2.335-3.146-4.653-6.364-6.923-9.582-3.711-5.274-7.37-10.68-10.87-16.086-0.438-0.652-0.773-1.314-1.156-1.972-57.958-89.811-85.913-193.642-81.119-299.348 0.011-0.348-0.009-0.698 0-1.054 0.464-10.326 1.283-20.795 2.395-31.101 0.059-0.665 0.207-1.294 0.319-1.959 1.149-10.363 2.591-20.751 4.398-31.136 18.367-105.962 68.352-201.311 143.252-275.503 0.174-0.174 0.354-0.363 0.53-0.544 0.062-0.068 0.13-0.103 0.189-0.167 20.123-19.848 42.012-38.206 65.58-54.806 61.678-43.461 130.357-72.188 204.115-85.424 22.38-4.022 43.758 10.876 47.773 33.245 4.013 22.384-10.872 43.78-33.245 47.788zM486.739 776.864c-18.409 0-33.32-14.924-33.32-33.306v-331.825l303.48-156.882c4.884-2.529 10.115-3.72 15.261-3.72 12.054 0 23.696 6.564 29.615 18.017 8.442 16.346 2.054 36.428-14.292 44.869l-267.462 138.275v291.265c-0.002 18.382-14.896 33.306-33.282 33.306z" />
<glyph unicode="&#xe92b;" glyph-name="twitter-logo" d="M1024 765.477c-37.689-16.7-78.129-28.026-120.618-33.083 43.384 25.98 76.594 67.187 92.334 116.139-40.696-24.059-85.616-41.529-133.48-50.999-38.328 40.888-92.846 66.356-153.316 66.356-116.010 0-210.072-94.062-210.072-210.009 0-16.444 1.856-32.505 5.44-47.864-174.559 8.768-329.345 92.399-432.941 219.481-18.109-30.971-28.411-67.059-28.411-105.581 0-72.883 37.113-137.191 93.423-174.815-34.426 1.151-66.804 10.621-95.15 26.363v-2.624c0-101.741 72.435-186.652 168.48-205.978-17.597-4.735-36.153-7.359-55.35-7.359-13.565 0-26.683 1.344-39.544 3.904 26.746-83.505 104.301-144.228 196.188-145.893-71.859-56.31-162.466-89.776-260.879-89.776-16.956 0-33.658 1.024-50.102 2.88 92.975-59.702 203.354-94.511 321.988-94.511 386.423 0 597.648 320.069 597.648 597.648l-0.704 27.195c41.271 29.437 76.976 66.421 105.067 108.526z" />
<glyph unicode="&#xe92c;" glyph-name="user" d="M511.253 455.921c125.622 0 227.813 113.068 227.813 252.045s-102.201 252.034-227.813 252.034c-125.622 0-227.834-113.068-227.834-252.034 0-138.987 102.212-252.045 227.834-252.045zM773.684 488.992c-13.28 2.872-26.943-2.904-34.074-14.464-81.503-132.038-212.911-135.849-227.621-135.849s-146.107 3.811-227.589 135.806c-7.152 11.582-20.848 17.379-34.138 14.454-176.947-38.953-223.607-306.049-209.815-522.931 1.078-16.866 15.062-30.007 31.961-30.007h879.184c16.898 0 30.893 13.13 31.95 30.007 13.803 217.127-32.868 484.373-209.858 522.984z" />
<glyph unicode="&#xe92d;" glyph-name="view" d="M1018.875 467.43c-134.536 135.614-313.818 210.296-504.852 210.296-0.353 0-0.689-0.018-1.043-0.018-0.177 0-0.336 0.018-0.495 0.018-0.477 0-0.954-0.071-1.431-0.071-189.903-0.76-368.036-75.318-501.865-210.225l-4.065-4.1c-6.874-6.927-6.821-18.114 0.106-24.988 3.446-3.411 7.952-5.125 12.441-5.125 4.542 0 9.101 1.75 12.547 5.231l4.065 4.1c92.848 93.608 208.211 156.485 333.911 183.982-52.044-42.148-85.444-106.491-85.444-178.522 0-126.672 103.063-229.735 229.735-229.735s229.735 103.063 229.735 229.735c0 72.632-33.983 137.382-86.769 179.511 127.432-26.985 244.385-90.268 338.329-184.972 6.874-6.945 18.078-6.98 24.988-0.106 6.927 6.874 6.98 18.061 0.106 24.988zM512.486 536.368c-48.722 0-88.36-39.638-88.36-88.36 0-9.755-7.917-17.672-17.672-17.672s-17.672 7.917-17.672 17.672c0 68.214 55.49 123.704 123.704 123.704 9.755 0 17.672-7.917 17.672-17.672s-7.917-17.672-17.672-17.672z" />
<glyph unicode="&#xe92e;" glyph-name="wall-clock" d="M512 960c-282.322 0-512-229.683-512-512s229.678-512 512-512c282.319 0 512 229.678 512 512 0 282.319-229.681 512-512 512zM727.309 106.057l-22.065 37.953c-2.547 4.379-7.284 7.101-12.361 7.101-2.528 0-4.926-0.652-7.136-1.938-3.298-1.916-5.648-4.996-6.624-8.682-0.965-3.684-0.455-7.526 1.461-10.825l22.094-38.001c-49.359-26.524-104.841-43.067-163.732-46.969v53.609c0 14.878-12.070 26.947-26.947 26.947-14.88 0-26.947-12.070-26.947-26.947v-53.601c-58.020 3.837-112.732 19.971-161.547 45.816l21.857 38.128c1.894 3.304 2.39 7.144 1.393 10.827-0.997 3.676-3.366 6.742-6.669 8.637-2.194 1.258-4.573 1.897-7.071 1.897-5.109 0-9.863-2.751-12.404-7.176l-21.833-38.085c-48.691 30.359-90.497 70.764-122.468 118.321l46.317 26.74c12.886 7.44 17.303 23.921 9.86 36.81-7.44 12.884-23.921 17.303-36.807 9.857l-46.382-26.778c-24.404 49.446-38.982 104.556-41.186 162.789l44.005 0.135c3.81 0.011 7.386 1.506 10.070 4.206 2.684 2.703 4.158 6.29 4.145 10.1-0.024 7.842-6.424 14.22-14.263 14.22l-44.054-0.135c1.884 59.147 16.535 115.119 41.281 165.26l46.382-26.778c4.242-2.45 8.874-3.614 13.444-3.614 9.313 0 18.373 4.832 23.363 13.476 7.443 12.889 3.026 29.37-9.86 36.81l-46.317 26.74c31.51 46.88 72.577 86.811 120.377 117.016l22.065-37.953c1.277-2.194 3.029-3.942 5.214-5.198 4.36-2.495 9.887-2.522 14.279 0.035 3.298 1.916 5.651 5.001 6.624 8.685 0.975 3.681 0.455 7.521-1.458 10.814l-22.091 38.001c49.365 26.524 104.844 43.073 163.732 46.969v-53.596c0-14.88 12.067-26.947 26.947-26.947 14.878 0 26.947 12.067 26.947 26.947v53.596c58.018-3.837 112.726-19.968 161.541-45.813l-21.857-38.128c-3.91-6.823-1.541-15.557 5.279-19.467 2.191-1.256 4.57-1.894 7.071-1.894 5.112 0 9.863 2.749 12.396 7.171l21.838 38.090c48.697-30.356 90.503-70.766 122.473-118.323l-46.317-26.74c-12.889-7.44-17.303-23.921-9.86-36.81 4.996-8.645 14.050-13.476 23.363-13.476 4.57 0 9.205 1.164 13.444 3.614l46.382 26.78c24.409-49.443 38.982-104.556 41.186-162.789l-44.005-0.135c-3.81-0.011-7.386-1.506-10.065-4.206-2.684-2.703-4.158-6.287-4.145-10.097 0.016-5.085 2.765-9.814 7.19-12.35 2.14-1.226 4.578-1.867 7.068-1.867h0.046l44.013 0.135c-1.884-59.147-16.535-115.122-41.281-165.26l-46.382 26.78c-12.892 7.443-29.362 3.023-36.807-9.863-7.443-12.886-3.029-29.367 9.86-36.807l46.317-26.74c-31.52-46.88-72.583-86.814-120.385-117.024zM711.157 594.122l-172.846-95.9c-7.869 4.131-16.807 6.5-26.319 6.5-9.507 0-18.448-2.366-26.317-6.5l-172.843 95.9c-16.341 9.070-36.948 3.169-46.021-13.175-9.065-16.344-3.169-36.948 13.18-46.018l176.352-97.849c5.096-26.101 28.058-45.802 55.646-45.802s50.553 19.704 55.646 45.802l176.346 97.849c16.346 9.068 22.242 29.672 13.18 46.018-9.054 16.346-29.656 22.245-46.005 13.175z" />
</font>
</defs>
</svg>
